<svg width="77" height="42" viewBox="0 0 77 42" fill="none" xmlns="http://www.w3.org/2000/svg">
<path fill-rule="evenodd" clip-rule="evenodd" d="M42.9203 11.1527C40.5841 10.2703 37.9895 10.1069 35.5395 10.6879C33.0895 11.2688 30.9212 12.5616 29.3716 14.3655C27.8219 16.1693 26.9776 18.3831 26.9698 20.6631C26.9619 22.9432 27.791 25.1617 29.3282 26.9741C30.8654 28.7865 33.0247 30.0914 35.4707 30.686C37.9166 31.2806 40.5123 31.1316 42.8545 30.2623C45.1968 29.3929 47.1544 27.8518 48.4234 25.8784C49.6923 23.905 50.2016 21.6097 49.872 19.349C50.9377 18.4776 51.6012 17.2782 51.7316 15.9878C51.8619 14.6974 51.4495 13.4099 50.5759 12.3799C49.7024 11.3499 48.4311 10.6524 47.0136 10.4251C45.596 10.1979 44.1354 10.4575 42.9203 11.1527ZM38.4679 27.5971C40.5012 27.5971 42.4512 26.8702 43.889 25.5763C45.3268 24.2825 46.1345 22.5276 46.1345 20.6978C46.0898 20.6973 46.0451 20.6973 46.0004 20.6978C45.1042 20.6981 44.2203 20.5098 43.4194 20.148C42.6184 19.7863 41.9225 19.261 41.3872 18.6143C40.8518 17.9675 40.4919 17.217 40.3361 16.4228C40.1804 15.6286 40.233 14.8127 40.4899 14.04C39.3522 13.7615 38.1586 13.7227 37.0015 13.9265C35.8444 14.1302 34.7551 14.5712 33.818 15.2151C32.8809 15.8591 32.1213 16.6886 31.5981 17.6394C31.075 18.5903 30.8022 19.6368 30.8012 20.6978C30.8012 22.5276 31.6089 24.2825 33.0467 25.5763C34.4845 26.8702 36.4345 27.5971 38.4679 27.5971ZM47.917 15.5234C47.917 15.9808 47.7151 16.4195 47.3556 16.743C46.9962 17.0665 46.5087 17.2482 46.0004 17.2482C45.492 17.2482 45.0045 17.0665 44.6451 16.743C44.2856 16.4195 44.0837 15.9808 44.0837 15.5234C44.0837 15.0659 44.2856 14.6272 44.6451 14.3037C45.0045 13.9803 45.492 13.7986 46.0004 13.7986C46.5087 13.7986 46.9962 13.9803 47.3556 14.3037C47.7151 14.6272 47.917 15.0659 47.917 15.5234Z" fill="white"/>
<path fill-rule="evenodd" clip-rule="evenodd" d="M2.2926 15.2888C8.8246 8.63443 21.2388 0.160409 37.9924 0.00172551L38.3336 0H38.4678C55.4609 0 68.0477 8.57233 74.641 15.2888C76.1175 16.7772 76.9336 18.7026 76.9336 20.6978C76.9336 22.693 76.1175 24.6184 74.641 26.1068C68.0477 32.8232 55.4609 41.3956 38.4678 41.3956H38.3336L37.9924 41.3938C21.2408 41.2352 8.8246 32.7611 2.2926 26.1068C0.81608 24.6184 0 22.693 0 20.6978C0 18.7026 0.81608 16.7772 2.2926 15.2888ZM5.16569 17.5724C8.7671 13.9037 14.2315 9.70209 21.2484 6.84062C17.4337 10.6388 15.3254 15.5781 15.3336 20.6978C15.3336 26.0275 17.5723 30.8863 21.2484 34.555C14.2334 31.6935 8.7671 27.4918 5.16569 23.8232C4.30784 22.9652 3.83319 21.8519 3.83319 20.6978C3.83319 19.5437 4.30784 18.4304 5.16569 17.5724ZM38.3873 3.44963L38.0403 3.45136C27.5888 3.59279 19.1669 11.2596 19.1669 20.6978C19.1669 30.136 27.5907 37.8028 38.0403 37.9442L38.3873 37.9459C48.9481 37.9201 57.5003 30.2067 57.5003 20.6978C57.5003 11.1889 48.9481 3.4755 38.3873 3.44963ZM61.3336 20.6978C61.3336 26.1137 59.0202 31.0467 55.2348 34.7361C62.4683 31.8729 68.0899 27.5695 71.7679 23.8232C72.6258 22.9652 73.1004 21.8519 73.1004 20.6978C73.1004 19.5437 72.6258 18.4304 71.7679 17.5724C68.0899 13.8261 62.4683 9.52271 55.2348 6.65951C59.1632 10.4788 61.3417 15.4935 61.3336 20.6978Z" fill="white"/>
</svg>
