<svg width="91" height="90" viewBox="0 0 91 90" fill="none" xmlns="http://www.w3.org/2000/svg">
<path d="M81.8701 43.8049C85.5612 40.1907 88.2925 35.7307 89.8214 30.8213C89.9408 30.4377 90.0452 30.0393 90.1347 29.641V29.4934C90.2441 29.0076 90.2441 28.5039 90.1347 28.018C86.2262 11.8033 67.4444 0 45.5 0C23.5555 0 4.77374 11.8033 0.820463 28.0328C0.711538 28.5187 0.711538 29.0223 0.820463 29.5082V29.6557C0.909971 30.0541 1.0144 30.4525 1.13374 30.8213C5.22128 44.6164 20.1393 55.0328 38.6675 57.1279C37.6707 61.5448 37.8652 66.1432 39.2315 70.4623C40.5978 74.7814 43.088 78.6695 46.4525 81.7369C49.8169 84.8042 53.9375 86.9431 58.4011 87.9392C62.8648 88.9352 67.5148 88.7535 71.885 87.4121C76.2553 86.0707 80.1923 83.6168 83.3014 80.2964C86.4106 76.976 88.5827 72.9057 89.6001 68.4934C90.6175 64.0811 90.4445 59.4818 89.0982 55.1565C87.752 50.8312 85.2799 46.9318 81.9298 43.8492L81.8701 43.8049ZM79.5578 41.9164C78.6877 41.2593 77.7758 40.6581 76.8278 40.1164C77.6632 39.7623 78.4688 39.3934 79.2446 38.9951L80.2888 38.4197C81.84 37.58 83.304 36.5916 84.6598 35.4689C83.2623 37.8367 81.546 40.0057 79.5578 41.9164ZM47.5885 42.7869H44.7839C40.0265 42.7627 35.2783 42.373 30.5819 41.6213C27.733 38.2163 26.1742 33.9352 26.1742 29.5156C26.1742 25.096 27.733 20.8148 30.5819 17.4098C35.3023 16.6484 40.0758 16.2538 44.8585 16.2295H46.216C47.305 16.2295 48.3642 16.2295 49.4234 16.3033C48.0774 17.4148 47.2258 19.0039 47.0514 20.7295C46.5593 20.6385 46.0602 20.5892 45.5596 20.582C43.7893 20.582 42.0588 21.1012 40.5868 22.0739C39.1149 23.0466 37.9676 24.4292 37.2902 26.0467C36.6127 27.6643 36.4354 29.4442 36.7808 31.1615C37.1262 32.8787 37.9787 34.456 39.2305 35.6941C40.4823 36.9321 42.0771 37.7752 43.8134 38.1168C45.5497 38.4584 47.3494 38.2831 48.985 37.613C50.6205 36.943 52.0184 35.8084 53.002 34.3526C53.9855 32.8968 54.5105 31.1853 54.5105 29.4344C54.5032 28.9393 54.4533 28.4457 54.3613 27.959C55.5758 27.8512 56.737 27.4153 57.718 26.6991C58.699 25.9828 59.4621 25.0137 59.924 23.8975C60.3859 22.7814 60.5288 21.5612 60.337 20.3702C60.1452 19.1793 59.6262 18.0633 58.8367 17.1443L60.4926 17.3951C62.7382 20.0675 64.1973 23.2992 64.7104 26.7367C65.2234 30.1743 64.7707 33.6851 63.4016 36.8852C57.6125 37.0526 52.0462 39.13 47.5885 42.7869ZM5.31079 29.5082C6.2759 27.7535 7.63307 26.2397 9.27899 25.082C9.55497 26.5426 9.69371 28.0239 9.69669 29.5082C9.69483 30.9931 9.55501 32.4748 9.27899 33.9344C7.68265 32.8044 6.35405 31.3444 5.38538 29.6557C5.35168 29.6114 5.32641 29.5614 5.31079 29.5082ZM11.9642 23.3115C15.9336 21.1495 20.1928 19.5549 24.6147 18.5754L26.3452 18.1918C24.2655 21.6081 23.1665 25.5205 23.1665 29.5082C23.1665 33.4959 24.2655 37.4083 26.3452 40.8246L24.6147 40.441C20.2332 39.4593 16.0108 37.8803 12.0687 35.7492C12.5237 33.7005 12.729 31.6052 12.6803 29.5082C12.68 27.4224 12.4397 25.3435 11.9642 23.3115ZM53.1977 25.082C52.4257 23.8022 51.344 22.7323 50.05 21.9689C50.0345 21.802 50.0345 21.6341 50.05 21.4672C50.0352 20.7316 50.2433 20.0085 50.6473 19.3907C51.0514 18.773 51.633 18.2888 52.3175 18.0006C53.0019 17.7123 53.7579 17.633 54.4882 17.773C55.2185 17.913 55.8899 18.2657 56.4159 18.786C56.9419 19.3062 57.2986 19.9702 57.4401 20.6925C57.5817 21.4148 57.5015 22.1625 57.2101 22.8394C56.9186 23.5163 56.4291 24.0915 55.8045 24.4912C55.1798 24.8908 54.4487 25.0965 53.7049 25.082C53.5362 25.0973 53.3664 25.0973 53.1977 25.082ZM51.4672 29.5082C51.4672 31.0734 50.8385 32.5745 49.7194 33.6813C48.6004 34.7881 47.0826 35.4098 45.5 35.4098C43.9174 35.4098 42.3996 34.7881 41.2805 33.6813C40.1614 32.5745 39.5328 31.0734 39.5328 29.5082C39.5328 27.943 40.1614 26.4419 41.2805 25.3351C42.3996 24.2283 43.9174 23.6066 45.5 23.6066C47.0826 23.6066 48.6004 24.2283 49.7194 25.3351C50.8385 26.4419 51.4672 27.943 51.4672 29.5082ZM64.7144 18.1918L66.43 18.5754C70.3422 19.4872 74.1362 20.8386 77.7378 22.6033C76.5247 27.1284 76.5247 31.888 77.7378 36.4131C76.2013 37.1803 74.6229 37.859 73.0088 38.4492C70.9284 37.6859 68.7575 37.19 66.5493 36.9738C67.6728 33.8998 68.0911 30.6172 67.7737 27.3637C67.4564 24.1101 66.4114 20.9671 64.7144 18.1623V18.1918ZM85.5996 29.7C84.3256 31.814 82.542 33.5831 80.4082 34.8492C80.0076 33.0966 79.8075 31.305 79.8114 29.5082C79.81 27.7066 80.0101 25.9105 80.4082 24.1525C82.6045 25.4594 84.4233 27.3039 85.6891 29.5082L85.5996 29.7ZM45.5 2.95082C64.2967 2.95082 80.5573 11.9951 85.9726 24.9049C84.2834 23.2191 82.3534 21.7875 80.2441 20.6557H80.0949L79.1849 20.1689C75.3575 18.2689 71.3165 16.8229 67.146 15.8607C65.2958 15.4151 63.4298 15.0361 61.5518 14.7246C56.5232 13.8312 51.429 13.3477 46.3205 13.2787C45.7983 13.2492 45.2762 13.2492 44.7541 13.2787C39.6301 13.2903 34.5158 13.7196 29.4631 14.5623C27.5088 14.8869 25.6142 15.2705 23.8539 15.6984C19.1625 16.7674 14.644 18.4755 10.4277 20.7738C10.0696 20.9803 9.74145 21.1721 9.47292 21.3492C7.86568 22.3191 6.38729 23.4839 5.0721 24.8164C10.5321 11.9508 26.748 2.95082 45.5 2.95082ZM6.41472 35.4098C7.35495 36.2076 8.35207 36.9374 9.39833 37.5934C9.74145 37.8148 10.1293 38.0361 10.5023 38.2574C14.6903 40.52 19.1728 42.203 23.8241 43.259C25.5247 43.6721 27.3447 44.041 29.2244 44.3508H29.4183C34.4115 45.2008 39.4642 45.6645 44.5303 45.7377C42.326 48.2309 40.6291 51.1215 39.5328 54.2508C24.6147 52.7016 12.1283 45.4721 6.41472 35.4098ZM64.1475 85.5738C51.3777 85.5738 41.0246 75.3344 41.0246 62.7049C41.0246 50.0754 51.3777 39.8361 64.1475 39.8361C76.9173 39.8361 87.2705 50.0754 87.2705 62.7049C87.2615 75.3315 76.9144 85.5649 64.1475 85.5738Z" fill="white"/>
<path d="M76.3952 50.5918C76.2565 50.4535 76.0915 50.3438 75.9097 50.2689C75.7279 50.194 75.5329 50.1554 75.336 50.1554C75.1391 50.1554 74.9441 50.194 74.7623 50.2689C74.5805 50.3438 74.4155 50.4535 74.2768 50.5918L64.1475 60.6246L54.0181 50.5918C53.7372 50.314 53.3562 50.1579 52.9589 50.1579C52.5617 50.1579 52.1807 50.314 51.8998 50.5918C51.6189 50.8696 51.461 51.2465 51.461 51.6394C51.461 52.0323 51.6189 52.4091 51.8998 52.6869L62.044 62.7049L51.8998 72.723C51.7599 72.8601 51.649 73.0233 51.5732 73.2031C51.4975 73.3829 51.4585 73.5757 51.4585 73.7705C51.4585 73.9653 51.4975 74.1581 51.5732 74.3379C51.649 74.5177 51.7599 74.6809 51.8998 74.818C52.0385 74.9563 52.2034 75.0661 52.3852 75.141C52.567 75.2159 52.762 75.2545 52.9589 75.2545C53.1559 75.2545 53.3509 75.2159 53.5327 75.141C53.7144 75.0661 53.8794 74.9563 54.0181 74.818L64.1475 64.7853L74.2768 74.818C74.4155 74.9563 74.5805 75.0661 74.7623 75.141C74.9441 75.2159 75.1391 75.2545 75.336 75.2545C75.5329 75.2545 75.7279 75.2159 75.9097 75.141C76.0915 75.0661 76.2565 74.9563 76.3952 74.818C76.535 74.6809 76.646 74.5177 76.7217 74.3379C76.7975 74.1581 76.8365 73.9653 76.8365 73.7705C76.8365 73.5757 76.7975 73.3829 76.7217 73.2031C76.646 73.0233 76.535 72.8601 76.3952 72.723L66.2509 62.7049L76.3952 52.6869C76.535 52.5497 76.646 52.3866 76.7217 52.2068C76.7975 52.027 76.8365 51.8341 76.8365 51.6394C76.8365 51.4446 76.7975 51.2517 76.7217 51.072C76.646 50.8922 76.535 50.729 76.3952 50.5918Z" fill="white"/>
</svg>
