<svg width="90" height="90" viewBox="0 0 90 90" fill="none" xmlns="http://www.w3.org/2000/svg">
<g clip-path="url(#clip0_119_45)">
<path d="M44.9998 88.5C67.0498 88.5 85.9498 76.785 89.9998 60.555C90.0153 60.3703 90.0153 60.1847 89.9998 60C89.9929 59.7833 89.9678 59.5675 89.9248 59.355C87.4498 49.32 78.9448 40.59 66.9748 35.7C67.4653 35.142 67.9168 34.551 68.3248 33.93C73.4398 26.04 68.5498 19.305 64.2298 13.365C62.5153 11.1696 61.0088 8.81951 59.7298 6.34502C59.4866 5.82708 59.1004 5.38949 58.6167 5.08385C58.133 4.77821 57.572 4.61727 56.9998 4.62002C56.4235 4.61572 55.8581 4.77753 55.3713 5.0861C54.8845 5.39468 54.4968 5.83695 54.2548 6.36002C52.9761 8.82998 51.4695 11.1752 49.7548 13.365C46.6948 17.61 43.4998 22.005 43.4998 27C43.5093 28.5354 43.7833 30.0577 44.3098 31.5C22.4998 31.755 4.01979 43.38 0.0747891 59.445C0.0341786 59.6276 0.00908912 59.8132 -0.000210962 60C-0.0181588 60.2146 -0.0181588 60.4304 -0.000210962 60.645C4.04979 76.785 22.9498 88.5 44.9998 88.5ZM8.57979 55.5C8.85591 56.9842 8.99649 58.4904 8.99979 60C8.99716 61.5097 8.85657 63.0159 8.57979 64.5C6.92088 63.3274 5.55536 61.7874 4.58979 60C5.55933 58.2155 6.92412 56.6762 8.57979 55.5ZM50.9998 60C50.9998 61.5913 50.3677 63.1174 49.2424 64.2427C48.1172 65.3679 46.5911 66 44.9998 66C43.4085 66 41.8824 65.3679 40.7572 64.2427C39.6319 63.1174 38.9998 61.5913 38.9998 60C38.9998 58.4087 39.6319 56.8826 40.7572 55.7574C41.8824 54.6322 43.4085 54 44.9998 54C46.5911 54 48.1172 54.6322 49.2424 55.7574C50.3677 56.8826 50.9998 58.4087 50.9998 60ZM52.7398 55.5C51.9636 54.1989 50.8759 53.1112 49.5748 52.335C49.5592 52.1654 49.5592 51.9947 49.5748 51.825C49.56 51.0772 49.7692 50.342 50.1754 49.7139C50.5817 49.0859 51.1666 48.5937 51.8548 48.3006C52.543 48.0075 53.3031 47.9269 54.0374 48.0692C54.7718 48.2115 55.4468 48.5702 55.9757 49.0991C56.5046 49.628 56.8633 50.303 57.0056 51.0374C57.1479 51.7717 57.0673 52.5319 56.7742 53.2201C56.4811 53.9083 55.989 54.4931 55.3609 54.8994C54.7329 55.3057 53.9977 55.5148 53.2498 55.5C53.0802 55.5156 52.9094 55.5156 52.7398 55.5ZM46.4998 51.15C46.005 51.0575 45.5031 51.0073 44.9998 51C43.2198 51 41.4797 51.5279 39.9997 52.5168C38.5196 53.5057 37.3661 54.9113 36.6849 56.5559C36.0037 58.2004 35.8255 60.01 36.1727 61.7558C36.52 63.5017 37.3772 65.1053 38.6358 66.364C39.8945 67.6227 41.4982 68.4798 43.244 68.8271C44.9898 69.1744 46.7994 68.9961 48.4439 68.3149C50.0885 67.6338 51.4941 66.4802 52.483 65.0002C53.472 63.5201 53.9998 61.7801 53.9998 60C53.9925 59.4967 53.9423 58.9949 53.8498 58.5C55.071 58.3904 56.2385 57.9473 57.2249 57.2191C58.2114 56.4909 58.9787 55.5056 59.4431 54.3709C59.9075 53.2361 60.0512 51.9956 59.8584 50.7848C59.6655 49.5739 59.1437 48.4394 58.3498 47.505L60.0448 47.775C62.887 51.2383 64.4404 55.5798 64.4404 60.06C64.4404 64.5402 62.887 68.8818 60.0448 72.345C55.0692 73.1359 50.0378 73.5222 44.9998 73.5C39.9451 73.5062 34.8984 73.0999 29.9098 72.285C27.0595 68.8255 25.5009 64.4825 25.5009 60C25.5009 55.5176 27.0595 51.1746 29.9098 47.715C36.2043 46.6871 42.588 46.3101 48.9598 46.59C48.2646 47.146 47.6886 47.8363 47.2659 48.6198C46.8433 49.4032 46.5827 50.2637 46.4998 51.15ZM85.4098 60C84.1542 62.2579 82.3219 64.1421 80.0998 65.46C79.2997 61.864 79.2997 58.1361 80.0998 54.54C82.3219 55.858 84.1542 57.7421 85.4098 60ZM77.4148 67.005C73.2685 69.0536 68.8782 70.5658 64.3498 71.505C66.4092 68.0316 67.4959 64.068 67.4959 60.03C67.4959 55.992 66.4092 52.0284 64.3498 48.555C68.8782 49.4942 73.2685 51.0064 77.4148 53.055C76.1947 57.6453 76.1947 62.4747 77.4148 67.065V67.005ZM22.4998 60C22.5055 64.0398 23.5988 68.0035 25.6648 71.475C20.6391 70.4751 15.7907 68.7309 11.2798 66.3C11.7579 64.2341 11.9995 62.1205 11.9998 60C11.9998 57.885 11.7598 55.776 11.2798 53.715C15.7867 51.2719 20.6362 49.5222 25.6648 48.525C23.5988 51.9965 22.5055 55.9603 22.4998 60ZM44.9998 85.5C26.8648 85.5 11.0548 77.235 4.97979 65.325C6.06517 66.3408 7.24559 67.2499 8.50479 68.04C8.6407 68.1884 8.81055 68.3016 8.99979 68.37C17.0698 73.335 30.3148 76.5 44.9998 76.5C58.8298 76.5 71.3548 73.68 79.4998 69.225H79.6498C79.8783 69.1453 80.0842 69.0115 80.2498 68.835C81.9217 67.8941 83.4816 66.767 84.8998 65.475C78.7348 77.34 62.9998 85.5 44.9998 85.5ZM52.2148 15.135C54.0397 12.7924 55.637 10.281 56.9848 7.63502C58.3442 10.2778 59.9461 12.7885 61.7698 15.135C66.0598 21.03 69.7648 26.13 65.7748 32.295C64.8401 33.8555 63.5234 35.1522 61.9487 36.0629C60.3741 36.9735 58.5935 37.4681 56.7748 37.5C54.0292 37.4412 51.4159 36.309 49.4952 34.3462C47.5745 32.3834 46.4992 29.7462 46.4998 27C46.4998 22.995 49.2748 19.17 52.2148 15.135ZM44.9998 34.5H45.8248C47.0248 36.2976 48.6389 37.7808 50.5313 38.8249C52.4237 39.869 54.5392 40.4435 56.6998 40.5H56.9998C59.707 40.4669 62.3335 39.5739 64.4998 37.95C73.9648 41.52 81.2398 47.535 84.9298 54.6C83.494 53.2858 81.9139 52.1385 80.2198 51.18C80.0568 51.011 79.8565 50.8825 79.6348 50.805H79.4998C71.3848 46.32 58.8448 43.5 44.9998 43.5C30.3148 43.5 17.0848 46.665 8.99979 51.615C8.80523 51.6887 8.63059 51.8069 8.48979 51.96C7.28875 52.728 6.15472 53.5961 5.09979 54.555C11.2648 42.66 26.9998 34.5 44.9998 34.5Z" fill="white"/>
<path d="M57 34.5C57.3978 34.5 57.7794 34.3419 58.0607 34.0606C58.342 33.7793 58.5 33.3978 58.5 33C58.5 32.6022 58.342 32.2206 58.0607 31.9393C57.7794 31.658 57.3978 31.5 57 31.5C55.8065 31.5 54.6619 31.0259 53.818 30.182C52.9741 29.3381 52.5 28.1935 52.5 27C52.5 26.6022 52.342 26.2206 52.0607 25.9393C51.7794 25.658 51.3978 25.5 51 25.5C50.6022 25.5 50.2206 25.658 49.9393 25.9393C49.658 26.2206 49.5 26.6022 49.5 27C49.5 28.9891 50.2902 30.8968 51.6967 32.3033C53.1032 33.7098 55.0109 34.5 57 34.5ZM83.625 3.70498C83.3656 3.23608 82.9853 2.84522 82.5236 2.57306C82.062 2.30089 81.5359 2.15735 81 2.15735C80.4641 2.15735 79.938 2.30089 79.4764 2.57306C79.0147 2.84522 78.6344 3.23608 78.375 3.70498C77.6643 4.94381 76.883 6.14078 76.035 7.28998C74.055 10.08 72 12.96 72 16.32C72 18.7069 72.9482 20.9961 74.636 22.6839C76.3239 24.3718 78.6131 25.32 81 25.32C83.3869 25.32 85.6761 24.3718 87.364 22.6839C89.0518 20.9961 90 18.7069 90 16.32C90 12.96 87.96 10.08 85.98 7.31998C85.1211 6.16474 84.3346 4.95743 83.625 3.70498ZM81 22.5C80.2002 22.4883 79.4106 22.3191 78.6762 22.0021C77.9418 21.6852 77.2771 21.2267 76.7199 20.6528C76.1627 20.0789 75.7241 19.4009 75.429 18.6575C75.1339 17.914 74.9881 17.1198 75 16.32C75 13.92 76.695 11.55 78.48 9.02998C79.3977 7.79229 80.2393 6.4999 81 5.15998C81.7722 6.4866 82.6185 7.76863 83.535 8.99998C85.32 11.55 87 13.92 87 16.32C87.0119 17.1198 86.8661 17.914 86.571 18.6575C86.2759 19.4009 85.8373 20.0789 85.2801 20.6528C84.7229 21.2267 84.0582 21.6852 83.3238 22.0021C82.5894 22.3191 81.7998 22.4883 81 22.5Z" fill="white"/>
</g>
<defs>
<clipPath id="clip0_119_45">
<rect width="90" height="90" fill="white"/>
</clipPath>
</defs>
</svg>
