<svg width="90" height="90" viewBox="0 0 90 90" fill="none" xmlns="http://www.w3.org/2000/svg">
<g clip-path="url(#clip0_119_42)">
<path d="M90 22.5C90 16.665 70.605 12.75 52.5 12.75C34.395 12.75 15 16.665 15 22.5C15 29.88 21.96 36.21 32.595 39.75H4.5C3.30653 39.75 2.16193 40.2241 1.31802 41.068C0.474106 41.9119 0 43.0565 0 44.25L0 72.75C0 73.9435 0.474106 75.0881 1.31802 75.932C2.16193 76.7759 3.30653 77.25 4.5 77.25H76.5C78.3847 77.2378 80.2459 76.8311 81.9639 76.056C83.6819 75.281 85.2186 74.1548 86.475 72.75C86.5329 72.7028 86.5835 72.6472 86.625 72.585C88.7856 70.1476 89.9853 67.0071 90 63.75C90 52.56 81.33 44.415 66.99 41.25C80.625 38.25 90 31.065 90 22.5ZM43.845 74.25C51.675 69.105 65.07 61.455 71.805 62.25C81 63.45 83.25 68.775 83.805 71.25C81.8531 73.1625 79.2326 74.2387 76.5 74.25H43.845ZM87 63.75C86.9885 65.3094 86.6298 66.8466 85.95 68.25C84.15 64.17 79.95 60.3 72.195 59.25C61.89 58.005 41.7 72 38.52 74.25H4.5C4.10218 74.25 3.72064 74.092 3.43934 73.8107C3.15804 73.5294 3 73.1478 3 72.75V44.25C3 43.8522 3.15804 43.4706 3.43934 43.1893C3.72064 42.908 4.10218 42.75 4.5 42.75H9V53.25C9 53.6478 9.15804 54.0294 9.43934 54.3107C9.72064 54.592 10.1022 54.75 10.5 54.75C10.8978 54.75 11.2794 54.592 11.5607 54.3107C11.842 54.0294 12 53.6478 12 53.25V42.75H18V53.25C18 53.6478 18.158 54.0294 18.4393 54.3107C18.7206 54.592 19.1022 54.75 19.5 54.75C19.8978 54.75 20.2794 54.592 20.5607 54.3107C20.842 54.0294 21 53.6478 21 53.25V42.75H52.5C73.5 42.75 87 51 87 63.75ZM52.5 39.75C33.795 39.75 18 31.845 18 22.53C18.495 20.46 32.055 15.75 52.5 15.75C72.945 15.75 86.46 20.445 87 22.515C87 31.86 71.19 39.75 52.5 39.75Z" fill="white"/>
<path d="M52.5 33.75C35.1 33.75 24.885 26.85 24 22.98C23.9605 22.7801 23.8817 22.5901 23.7681 22.421C23.6545 22.252 23.5083 22.1072 23.3382 21.9952C23.168 21.8832 22.9772 21.8062 22.777 21.7687C22.5768 21.7312 22.3711 21.7339 22.1719 21.7767C21.9728 21.8195 21.7841 21.9016 21.617 22.0181C21.4499 22.1346 21.3076 22.2832 21.1985 22.4552C21.0894 22.6273 21.0157 22.8193 20.9816 23.0201C20.9475 23.221 20.9538 23.4266 21 23.625C22.5 29.94 34.86 36.75 52.5 36.75C52.8978 36.75 53.2793 36.592 53.5606 36.3107C53.8419 36.0294 54 35.6478 54 35.25C54 34.8522 53.8419 34.4706 53.5606 34.1893C53.2793 33.908 52.8978 33.75 52.5 33.75Z" fill="white"/>
</g>
<defs>
<clipPath id="clip0_119_42">
<rect width="90" height="90" fill="white"/>
</clipPath>
</defs>
</svg>
