<svg width="90" height="90" viewBox="0 0 90 90" fill="none" xmlns="http://www.w3.org/2000/svg">
<path d="M80.9703 43.8048C84.6208 40.1906 87.3221 35.7306 88.8342 30.8212C88.9522 30.4376 89.0555 30.0392 89.144 29.6409V29.4933C89.2523 29.0075 89.2523 28.5038 89.144 28.0179C85.2785 11.8032 66.7031 -0.00012207 44.9998 -0.00012207C23.2965 -0.00012207 4.7211 11.8032 0.811265 28.0327C0.703537 28.5186 0.703537 29.0222 0.811265 29.5081V29.6556C0.899789 30.054 1.00307 30.4523 1.1211 30.8212C5.16372 44.6163 19.9178 55.0327 38.2424 57.1277C37.2565 61.5446 37.4489 66.1431 38.8002 70.4622C40.1515 74.7813 42.6143 78.6694 45.9418 81.7368C49.2693 84.8041 53.3446 86.943 57.7592 87.9391C62.1738 88.9351 66.7727 88.7533 71.0949 87.412C75.4171 86.0706 79.3108 83.6167 82.3858 80.2963C85.4609 76.9759 87.6091 72.9055 88.6153 68.4932C89.6216 64.0809 89.4504 59.4817 88.1189 55.1564C86.7875 50.8311 84.3426 46.9317 81.0293 43.8491L80.9703 43.8048ZM78.6834 41.9163C77.8228 41.2592 76.9209 40.658 75.9834 40.1163C76.8096 39.7622 77.6063 39.3933 78.3736 38.995C80.2727 38.0102 82.0503 36.8069 83.6703 35.4097C82.3108 37.7947 80.6331 39.9837 78.6834 41.9163ZM47.0654 42.7868H44.2916C39.5868 42.7565 34.8911 42.3668 30.2457 41.6212C27.4243 38.2151 25.8803 33.931 25.8803 29.5081C25.8803 25.0852 27.4243 20.801 30.2457 17.395C34.9157 16.6478 39.636 16.2581 44.3654 16.2294H45.708C46.7703 16.2294 47.8326 16.2294 48.8801 16.3032C47.5489 17.4146 46.7067 19.0038 46.5342 20.7294C46.0475 20.6384 45.5539 20.589 45.0588 20.5818C43.308 20.5818 41.5964 21.101 40.1406 22.0738C38.6849 23.0465 37.5502 24.429 36.8802 26.0466C36.2102 27.6642 36.0349 29.4441 36.3764 31.1613C36.718 32.8785 37.5611 34.4559 38.7992 35.6939C40.0372 36.932 41.6146 37.7751 43.3318 38.1167C45.049 38.4582 46.8289 38.2829 48.4465 37.6129C50.0641 36.9429 51.4466 35.8082 52.4193 34.3525C53.3921 32.8967 53.9113 31.1852 53.9113 29.4343C53.9041 28.9392 53.8547 28.4456 53.7637 27.9589C55.3971 27.7984 56.9132 27.0387 58.0194 25.8262C59.1256 24.6138 59.7435 23.0345 59.7539 21.3933C59.7488 19.8344 59.1892 18.3282 58.1752 17.1441L59.8277 17.395C62.0456 20.0689 63.4868 23.3005 63.9941 26.7374C64.5014 30.1742 64.0554 33.6844 62.7047 36.8851C56.9792 37.0525 51.4741 39.1299 47.0654 42.7868ZM5.25225 29.5081C6.20676 27.7534 7.54901 26.2395 9.17684 25.0818C9.7265 28.0071 9.7265 31.0091 9.17684 33.9343C7.59355 32.8093 6.27856 31.3482 5.32602 29.6556C5.29269 29.6113 5.26769 29.5613 5.25225 29.5081ZM11.8326 23.3114C15.7583 21.1494 19.9707 19.5548 24.344 18.5753L26.0555 18.1917C23.9986 21.608 22.9118 25.5203 22.9118 29.5081C22.9118 33.4958 23.9986 37.4081 26.0555 40.8245L24.344 40.4409C20.0078 39.4614 15.8309 37.877 11.9359 35.7343C12.3847 33.6904 12.5878 31.6002 12.5408 29.5081C12.5405 27.4223 12.3029 25.3434 11.8326 23.3114ZM52.6129 25.0818C51.8494 23.802 50.7796 22.7322 49.4998 21.9687C49.4845 21.8019 49.4845 21.634 49.4998 21.4671C49.4852 20.7315 49.691 20.0083 50.0906 19.3906C50.4902 18.7728 51.0655 18.2887 51.7424 18.0004C52.4193 17.7122 53.167 17.6329 53.8893 17.7729C54.6116 17.9128 55.2755 18.2656 55.7958 18.7859C56.316 19.3061 56.6688 19.9701 56.8088 20.6924C56.9487 21.4147 56.8695 22.1623 56.5812 22.8393C56.2929 23.5162 55.8088 24.0914 55.191 24.491C54.5733 24.8907 53.8501 25.0964 53.1145 25.0818C52.9477 25.0972 52.7798 25.0972 52.6129 25.0818ZM50.9014 29.5081C50.9014 31.0733 50.2796 32.5744 49.1729 33.6812C48.0661 34.7879 46.565 35.4097 44.9998 35.4097C43.4346 35.4097 41.9335 34.7879 40.8267 33.6812C39.7199 32.5744 39.0981 31.0733 39.0981 29.5081C39.0981 27.9429 39.7199 26.4418 40.8267 25.335C41.9335 24.2282 43.4346 23.6064 44.9998 23.6064C46.565 23.6064 48.0661 24.2282 49.1729 25.335C50.2796 26.4418 50.9014 27.9429 50.9014 29.5081ZM64.0031 18.1917L65.6998 18.5753C69.569 19.4871 73.3213 20.8385 76.8834 22.6032C75.6835 27.1282 75.6835 31.8879 76.8834 36.413C75.3637 37.1802 73.8027 37.8589 72.2063 38.4491C70.1488 37.6857 68.0017 37.1899 65.8178 36.9736C66.929 33.8997 67.3426 30.6171 67.0288 27.3636C66.7149 24.11 65.6814 20.967 64.0031 18.1622V18.1917ZM84.6588 29.6999C83.3997 31.8186 81.6358 33.5926 79.5244 34.8638C78.7374 31.3367 78.7374 27.6795 79.5244 24.1523C81.7003 25.4545 83.5002 27.3001 84.7473 29.5081L84.6588 29.6999ZM44.9998 2.9507C63.5899 2.9507 79.6424 11.995 85.0277 24.8753C83.0655 22.9069 80.7987 21.2678 78.3145 20.0212C74.5292 18.1213 70.5326 16.6752 66.408 15.713C59.659 14.1113 52.7477 13.2944 45.8113 13.2786C45.2949 13.2491 44.7785 13.2491 44.2621 13.2786C37.3066 13.2865 30.3753 14.0984 23.6063 15.6982C19.0034 16.739 14.5652 18.407 10.4162 20.6556C8.41661 21.7696 6.58798 23.1659 4.98667 24.8015C10.4014 11.9655 26.4391 2.9507 44.9998 2.9507ZM6.34405 35.4097C7.60537 36.5195 8.96881 37.5075 10.4162 38.3605C14.5582 40.6232 18.9915 42.3061 23.5916 43.3622C30.2944 44.9352 37.1559 45.7322 44.0408 45.7376C41.8637 48.2329 40.1858 51.1229 39.0981 54.2507C24.344 52.7015 11.9949 45.472 6.34405 35.4097ZM63.4424 85.5736C50.8129 85.5736 40.5736 75.3343 40.5736 62.7048C40.5736 50.0753 50.8129 39.8359 63.4424 39.8359C76.0719 39.8359 86.3113 50.0753 86.3113 62.7048C86.3024 75.3313 76.069 85.5648 63.4424 85.5736Z" fill="white"/>
<path d="M76.4559 52.0376L55.4903 71.6015L50.5772 65.4785C50.4641 65.3084 50.3169 65.1636 50.1449 65.0533C49.9729 64.943 49.7799 64.8696 49.5781 64.8378C49.3763 64.8061 49.17 64.8165 48.9725 64.8686C48.7749 64.9206 48.5903 65.0132 48.4304 65.1403C48.2705 65.2674 48.1387 65.4264 48.0434 65.6071C47.9481 65.7878 47.8914 65.9864 47.8768 66.1902C47.8622 66.3939 47.8902 66.5985 47.9588 66.791C48.0274 66.9834 48.1353 67.1595 48.2755 67.308L54.1772 74.6851C54.3034 74.846 54.4617 74.979 54.642 75.0755C54.8223 75.172 55.0208 75.23 55.2247 75.2457H55.328C55.7007 75.2445 56.0592 75.1021 56.3313 74.8474L78.4624 54.1916C78.7178 53.9187 78.8601 53.559 78.8605 53.1852C78.861 52.8114 78.7195 52.4514 78.4647 52.1779C78.2099 51.9044 77.8608 51.7378 77.488 51.7117C77.1151 51.6857 76.7462 51.8021 76.4559 52.0376Z" fill="white"/>
</svg>
