<svg width="90" height="90" viewBox="0 0 90 90" fill="none" xmlns="http://www.w3.org/2000/svg">
<g clip-path="url(#clip0_119_33)">
<path d="M-0.000151703 44.49C-0.0169953 44.6596 -0.0169953 44.8304 -0.000151703 45C-0.024689 45.2143 -0.024689 45.4307 -0.000151703 45.645C4.04985 61.785 22.9498 73.5 44.9998 73.5C67.0499 73.5 85.9498 61.785 89.9998 45.51C90.0167 45.3404 90.0167 45.1696 89.9998 45C89.9998 44.7825 89.9743 44.565 89.9249 44.355C85.9499 28.215 67.0499 16.5 44.9998 16.5C22.9498 16.5 4.04985 28.215 -0.000151703 44.49ZM52.7398 40.5C51.9636 39.1989 50.876 38.1112 49.5748 37.335C49.5593 37.1654 49.5593 36.9946 49.5748 36.825C49.56 36.0771 49.7692 35.3419 50.1755 34.7139C50.5818 34.0858 51.1666 33.5936 51.8548 33.3006C52.543 33.0075 53.3031 32.9269 54.0375 33.0692C54.7718 33.2115 55.4468 33.5702 55.9758 34.0991C56.5047 34.628 56.8633 35.303 57.0056 36.0374C57.1479 36.7717 57.0674 37.5318 56.7743 38.22C56.4812 38.9082 55.989 39.4931 55.361 39.8993C54.7329 40.3056 53.9977 40.5148 53.2498 40.5C53.0802 40.5156 52.9095 40.5156 52.7398 40.5ZM50.9998 45C50.9998 46.5913 50.3677 48.1174 49.2425 49.2426C48.1173 50.3679 46.5911 51 44.9998 51C43.4086 51 41.8824 50.3679 40.7572 49.2426C39.632 48.1174 38.9998 46.5913 38.9998 45C38.9998 43.4087 39.632 41.8826 40.7572 40.7574C41.8824 39.6321 43.4086 39 44.9998 39C46.5911 39 48.1173 39.6321 49.2425 40.7574C50.3677 41.8826 50.9998 43.4087 50.9998 45ZM46.4998 36.15C46.005 36.0575 45.5032 36.0073 44.9998 36C43.2198 36 41.4798 36.5278 39.9997 37.5168C38.5197 38.5057 37.3661 39.9113 36.6849 41.5559C36.0037 43.2004 35.8255 45.01 36.1728 46.7558C36.52 48.5016 37.3772 50.1053 38.6359 51.364C39.8946 52.6226 41.4982 53.4798 43.244 53.8271C44.9899 54.1743 46.7995 53.9961 48.444 53.3149C50.0885 52.6337 51.4941 51.4802 52.4831 50.0001C53.472 48.5201 53.9998 46.78 53.9998 45C53.9925 44.4967 53.9423 43.9948 53.8498 43.5C55.071 43.3904 56.2386 42.9473 57.225 42.219C58.2114 41.4908 58.9787 40.5056 59.4432 39.3708C59.9076 38.2361 60.0512 36.9956 59.8584 35.7847C59.6656 34.5739 59.1437 33.4394 58.3498 32.505L60.0448 32.775C62.887 36.2382 64.4405 40.5798 64.4405 45.06C64.4405 49.5402 62.887 53.8818 60.0448 57.345C55.0693 58.1359 50.0378 58.5222 44.9998 58.5C39.9452 58.5062 34.8984 58.0999 29.9098 57.285C27.0596 53.8255 25.501 49.4825 25.501 45C25.501 40.5175 27.0596 36.1746 29.9098 32.715C36.2044 31.687 42.5881 31.31 48.9598 31.59C48.2647 32.146 47.6886 32.8363 47.266 33.6197C46.8433 34.4032 46.5828 35.2637 46.4998 36.15ZM80.0999 50.46C79.2998 46.864 79.2998 43.136 80.0999 39.54C82.3219 40.858 84.1543 42.7421 85.4098 45C84.1543 47.2579 82.3219 49.142 80.0999 50.46ZM77.4148 51.96C73.2686 54.0086 68.8782 55.5208 64.3499 56.46C66.4092 52.9866 67.4959 49.023 67.4959 44.985C67.4959 40.947 66.4092 36.9834 64.3499 33.51C68.8782 34.4492 73.2686 35.9614 77.4148 38.01C76.1948 42.6003 76.1948 47.4297 77.4148 52.02V51.96ZM22.4998 45C22.5056 49.0398 23.5988 53.0035 25.6648 56.475C20.6363 55.4778 15.7867 53.7282 11.2798 51.285C12.2419 47.1502 12.2419 42.8498 11.2798 38.715C15.7867 36.2718 20.6363 34.5222 25.6648 33.525C23.5988 36.9965 22.5056 40.9602 22.4998 45ZM8.57985 40.5C8.85735 41.985 8.99685 43.491 8.99985 45C8.99722 46.5097 8.85663 48.0159 8.57985 49.5C6.92418 48.3238 5.55939 46.7846 4.58985 45C5.55939 43.2154 6.92418 41.6762 8.57985 40.5ZM44.9998 70.5C26.9998 70.5 11.2198 62.325 5.08485 50.43C12.1798 57 27.5698 61.5 44.9998 61.5C62.4298 61.5 77.7898 57 84.8998 50.445C78.7348 62.34 62.9998 70.5 44.9998 70.5ZM85.0199 39.675C77.9998 33 62.5198 28.5 44.9998 28.5C27.4798 28.5 12.1948 33 5.08485 39.57C11.2498 27.66 26.9998 19.5 44.9998 19.5C62.9998 19.5 78.9298 27.765 85.0199 39.675Z" fill="white"/>
<path d="M88.5 12.75C81.27 12.75 81 5.355 81 4.5C81 4.10218 80.842 3.72064 80.5607 3.43934C80.2794 3.15804 79.8978 3 79.5 3C79.1022 3 78.7206 3.15804 78.4393 3.43934C78.158 3.72064 78 4.10218 78 4.5C78 5.355 77.73 12.75 70.5 12.75C70.1022 12.75 69.7206 12.908 69.4393 13.1893C69.158 13.4706 69 13.8522 69 14.25C69 14.6478 69.158 15.0294 69.4393 15.3107C69.7206 15.592 70.1022 15.75 70.5 15.75C77.745 15.75 78 23.16 78 24C78 24.3978 78.158 24.7794 78.4393 25.0607C78.7206 25.342 79.1022 25.5 79.5 25.5C79.8978 25.5 80.2794 25.342 80.5607 25.0607C80.842 24.7794 81 24.3978 81 24C81 23.145 81.27 15.75 88.5 15.75C88.8978 15.75 89.2794 15.592 89.5607 15.3107C89.842 15.0294 90 14.6478 90 14.25C90 13.8522 89.842 13.4706 89.5607 13.1893C89.2794 12.908 88.8978 12.75 88.5 12.75ZM79.5 18C78.73 16.4758 77.5709 15.1821 76.14 14.25C77.5709 13.3179 78.73 12.0242 79.5 10.5C80.27 12.0242 81.4291 13.3179 82.86 14.25C81.4291 15.1821 80.27 16.4758 79.5 18ZM1.5 77.25C8.745 77.25 9 84.66 9 85.5C9 85.8978 9.15804 86.2794 9.43934 86.5607C9.72064 86.842 10.1022 87 10.5 87C10.8978 87 11.2794 86.842 11.5607 86.5607C11.842 86.2794 12 85.8978 12 85.5C12 84.645 12.27 77.25 19.5 77.25C19.8978 77.25 20.2794 77.092 20.5607 76.8107C20.842 76.5294 21 76.1478 21 75.75C21 75.3522 20.842 74.9706 20.5607 74.6893C20.2794 74.408 19.8978 74.25 19.5 74.25C12.27 74.25 12 66.855 12 66C12 65.6022 11.842 65.2206 11.5607 64.9393C11.2794 64.658 10.8978 64.5 10.5 64.5C10.1022 64.5 9.72064 64.658 9.43934 64.9393C9.15804 65.2206 9 65.6022 9 66C9 66.855 8.73 74.25 1.5 74.25C1.10218 74.25 0.720644 74.408 0.43934 74.6893C0.158035 74.9706 0 75.3522 0 75.75C0 76.1478 0.158035 76.5294 0.43934 76.8107C0.720644 77.092 1.10218 77.25 1.5 77.25ZM10.5 72C11.27 73.5242 12.4291 74.8179 13.86 75.75C12.4291 76.6821 11.27 77.9758 10.5 79.5C9.73 77.9758 8.57087 76.6821 7.14 75.75C8.57087 74.8179 9.73 73.5242 10.5 72ZM28.5 76.5C28.5 76.1022 28.342 75.7206 28.0607 75.4393C27.7794 75.158 27.3978 75 27 75C26.6022 75 26.2206 75.158 25.9393 75.4393C25.658 75.7206 25.5 76.1022 25.5 76.5V79.5C25.5 79.8978 25.658 80.2794 25.9393 80.5607C26.2206 80.842 26.6022 81 27 81C27.3978 81 27.7794 80.842 28.0607 80.5607C28.342 80.2794 28.5 79.8978 28.5 79.5V76.5ZM27 90C27.3978 90 27.7794 89.842 28.0607 89.5607C28.342 89.2794 28.5 88.8978 28.5 88.5V85.5C28.5 85.1022 28.342 84.7206 28.0607 84.4393C27.7794 84.158 27.3978 84 27 84C26.6022 84 26.2206 84.158 25.9393 84.4393C25.658 84.7206 25.5 85.1022 25.5 85.5V88.5C25.5 88.8978 25.658 89.2794 25.9393 89.5607C26.2206 89.842 26.6022 90 27 90ZM30 84H33C33.3978 84 33.7794 83.842 34.0607 83.5607C34.342 83.2794 34.5 82.8978 34.5 82.5C34.5 82.1022 34.342 81.7206 34.0607 81.4393C33.7794 81.158 33.3978 81 33 81H30C29.6022 81 29.2206 81.158 28.9393 81.4393C28.658 81.7206 28.5 82.1022 28.5 82.5C28.5 82.8978 28.658 83.2794 28.9393 83.5607C29.2206 83.842 29.6022 84 30 84ZM24 81H21C20.6022 81 20.2206 81.158 19.9393 81.4393C19.658 81.7206 19.5 82.1022 19.5 82.5C19.5 82.8978 19.658 83.2794 19.9393 83.5607C20.2206 83.842 20.6022 84 21 84H24C24.3978 84 24.7794 83.842 25.0607 83.5607C25.342 83.2794 25.5 82.8978 25.5 82.5C25.5 82.1022 25.342 81.7206 25.0607 81.4393C24.7794 81.158 24.3978 81 24 81ZM63 0C62.6022 0 62.2206 0.158035 61.9393 0.43934C61.658 0.720644 61.5 1.10218 61.5 1.5V4.5C61.5 4.89782 61.658 5.27936 61.9393 5.56066C62.2206 5.84196 62.6022 6 63 6C63.3978 6 63.7794 5.84196 64.0607 5.56066C64.342 5.27936 64.5 4.89782 64.5 4.5V1.5C64.5 1.10218 64.342 0.720644 64.0607 0.43934C63.7794 0.158035 63.3978 0 63 0V0ZM61.5 13.5C61.5 13.8978 61.658 14.2794 61.9393 14.5607C62.2206 14.842 62.6022 15 63 15C63.3978 15 63.7794 14.842 64.0607 14.5607C64.342 14.2794 64.5 13.8978 64.5 13.5V10.5C64.5 10.1022 64.342 9.72064 64.0607 9.43934C63.7794 9.15804 63.3978 9 63 9C62.6022 9 62.2206 9.15804 61.9393 9.43934C61.658 9.72064 61.5 10.1022 61.5 10.5V13.5ZM66 9H69C69.3978 9 69.7794 8.84196 70.0607 8.56066C70.342 8.27936 70.5 7.89782 70.5 7.5C70.5 7.10218 70.342 6.72064 70.0607 6.43934C69.7794 6.15804 69.3978 6 69 6H66C65.6022 6 65.2206 6.15804 64.9393 6.43934C64.658 6.72064 64.5 7.10218 64.5 7.5C64.5 7.89782 64.658 8.27936 64.9393 8.56066C65.2206 8.84196 65.6022 9 66 9ZM60 6H57C56.6022 6 56.2206 6.15804 55.9393 6.43934C55.658 6.72064 55.5 7.10218 55.5 7.5C55.5 7.89782 55.658 8.27936 55.9393 8.56066C56.2206 8.84196 56.6022 9 57 9H60C60.3978 9 60.7794 8.84196 61.0607 8.56066C61.342 8.27936 61.5 7.89782 61.5 7.5C61.5 7.10218 61.342 6.72064 61.0607 6.43934C60.7794 6.15804 60.3978 6 60 6Z" fill="white"/>
</g>
<defs>
<clipPath id="clip0_119_33">
<rect width="90" height="90" fill="white"/>
</clipPath>
</defs>
</svg>
