<svg width="90" height="90" viewBox="0 0 90 90" fill="none" xmlns="http://www.w3.org/2000/svg">
<g clip-path="url(#clip0_119_36)">
<path d="M35.865 64.035C36.7745 61.7739 37.5116 59.4473 38.07 57.075C38.91 53.475 39.363 49.7925 39.42 46.095V44.145C39.3746 40.397 38.922 36.6651 38.07 33.015C37.5981 31.0508 37.007 29.1173 36.3 27.225H36.39C40.2 27.225 45.63 25.725 47.895 20.13C48.0422 19.76 48.0364 19.3467 47.8789 18.981C47.7213 18.6153 47.425 18.3272 47.055 18.18C46.685 18.0328 46.2717 18.0386 45.906 18.1961C45.5403 18.3537 45.2522 18.65 45.105 19.02C44.5584 20.3581 43.6637 21.5256 42.5137 22.4013C41.3637 23.2769 40.0003 23.8289 38.565 24C39.8402 22.6912 40.6335 20.9883 40.815 19.17C41.01 16.47 39.48 14.265 38.13 12.315C37.7014 11.7326 37.3058 11.1267 36.945 10.5C35.8566 8.49358 35.2025 6.28067 35.025 4.00499C34.8992 2.90196 34.3701 1.88437 33.5394 1.14784C32.7088 0.411309 31.6352 0.0078358 30.525 0.014986H9C7.80912 0.0149794 6.6668 0.487026 5.82331 1.3277C4.97983 2.16837 4.50397 3.30911 4.5 4.49999V85.5C4.5 86.6935 4.97411 87.8381 5.81802 88.682C6.66193 89.5259 7.80653 90 9 90H30.57C31.6802 90.0071 32.7538 89.6037 33.5844 88.8671C34.4151 88.1306 34.9442 87.113 35.07 86.01C35.227 83.7317 35.8661 81.5127 36.945 79.5C37.3035 78.876 37.698 78.276 38.13 77.7C39.48 75.75 41.01 73.545 40.815 70.845C40.6282 69.3855 40.0769 67.9966 39.2117 66.8064C38.3466 65.6162 37.1956 64.663 35.865 64.035ZM16.5 39.54C17.019 40.5555 17.475 41.6025 17.865 42.675C18.3576 44.1858 18.3576 45.8141 17.865 47.325C17.4818 48.3998 17.0257 49.4472 16.5 50.46L15.225 49.185C14.1346 48.0648 13.5245 46.5632 13.5245 45C13.5245 43.4367 14.1346 41.9352 15.225 40.815L16.5 39.54ZM20.7 41.715C20.1658 40.2158 19.5138 38.7612 18.75 37.365C20.1 36.12 21.45 34.935 22.815 33.84C26.0253 31.3062 29.4946 29.119 33.165 27.315C33.8163 28.9667 34.3722 30.6545 34.83 32.37C32.4324 33.4784 30.4126 35.2657 29.0208 37.5107C27.6291 39.7557 26.9264 42.3596 27 45C26.9238 47.6371 27.622 50.2387 29.0082 52.4833C30.3945 54.7279 32.408 56.5172 34.8 57.63C34.349 59.3475 33.793 61.0357 33.135 62.685C29.46 60.8809 25.9857 58.6938 22.77 56.16C21.405 55.065 20.055 53.88 18.705 52.635C19.47 51.24 20.121 49.785 20.655 48.285C21.3751 46.1542 21.3751 43.8458 20.655 41.715H20.7ZM36.465 44.19V45.945C36.4121 48.871 36.1059 51.7868 35.55 54.66C33.8278 53.7139 32.399 52.3122 31.4201 50.6084C30.4412 48.9046 29.9499 46.9643 30 45C29.9472 43.0405 30.4324 41.104 31.403 39.4009C32.3735 37.6979 33.7922 36.2933 35.505 35.34C36.075 38.2565 36.3813 41.2185 36.42 44.19H36.465ZM35.7 76.005C35.25 76.665 34.77 77.355 34.38 78.045C33.084 80.41 32.3019 83.0219 32.085 85.71C32.0341 86.0704 31.8538 86.4 31.5778 86.6373C31.3018 86.8747 30.949 87.0036 30.585 87H9C8.60218 87 8.22064 86.842 7.93934 86.5607C7.65804 86.2794 7.5 85.8978 7.5 85.5V4.49999C7.5 4.10216 7.65804 3.72063 7.93934 3.43933C8.22064 3.15802 8.60218 2.99999 9 2.99999H30.57C30.934 2.9964 31.2868 3.1253 31.5628 3.36264C31.8388 3.59998 32.0191 3.92957 32.07 4.28999C32.2754 6.99049 33.0471 9.61749 34.335 12C34.725 12.675 35.205 13.365 35.655 14.025C36.825 15.705 37.935 17.295 37.815 18.93C37.6658 19.9121 37.2696 20.8403 36.6635 21.6274C36.0575 22.4145 35.2614 23.0347 34.35 23.43C29.5388 25.5859 25.0059 28.3157 20.85 31.56C18.0846 33.8124 15.4597 36.2319 12.99 38.805C11.3678 40.4832 10.4611 42.7259 10.4611 45.06C10.4611 47.394 11.3678 49.6368 12.99 51.315C15.4712 53.8685 18.1061 56.2679 20.88 58.5C25.0344 61.7423 29.5677 64.4673 34.38 66.615C35.2926 67.0106 36.0903 67.6306 36.6987 68.4174C37.3072 69.2043 37.7067 70.1322 37.86 71.115C37.935 72.735 36.825 74.325 35.655 76.005H35.7Z" fill="white"/>
<path d="M79.5002 46.5H77.0702C82.6352 41.13 85.3052 33.72 83.3702 27.525C83.2339 27.0848 83.0018 26.6804 82.6905 26.3406C82.3793 26.0009 81.9967 25.7343 81.5702 25.56C81.1272 25.375 80.6489 25.2899 80.1693 25.3107C79.6897 25.3314 79.2206 25.4575 78.7952 25.68L45.7952 42.855C45.3686 43.0761 44.9957 43.3882 44.7028 43.7692C44.41 44.1502 44.2042 44.5908 44.1002 45.06C44.0022 45.5104 44.0024 45.9767 44.1008 46.4271C44.1991 46.8774 44.3933 47.3014 44.6702 47.67C47.8052 51.705 53.1902 53.835 59.0402 53.835C60.6307 53.8325 62.2176 53.6818 63.7802 53.385C61.3009 56.5566 59.9685 60.4743 60.0002 64.5V87C60.0002 87.7956 60.3163 88.5587 60.8789 89.1213C61.4415 89.6839 62.2045 90 63.0002 90H82.5002C83.2958 90 84.0589 89.6839 84.6215 89.1213C85.1841 88.5587 85.5002 87.7956 85.5002 87V52.5C85.5002 50.9087 84.868 49.3825 83.7428 48.2573C82.6176 47.1321 81.0915 46.5 79.5002 46.5ZM82.5002 52.5V69C81.3731 68.9738 80.2762 68.6307 79.3352 68.01C78.5376 67.3671 77.876 66.5717 77.3893 65.6703C76.9025 64.7689 76.6003 63.7795 76.5002 62.76C75.4352 56.355 76.7702 52.05 78.2402 50.31C78.3858 50.098 78.5723 49.9172 78.7886 49.7781C79.005 49.639 79.2469 49.5445 79.5002 49.5C80.2958 49.5 81.0589 49.816 81.6215 50.3786C82.1841 50.9412 82.5002 51.7043 82.5002 52.5ZM47.0852 45.75C47.1118 45.6699 47.1647 45.6012 47.2352 45.555L80.2352 28.38C80.2928 28.3595 80.3553 28.3572 80.4143 28.3733C80.4733 28.3894 80.5259 28.4231 80.5652 28.47C82.6952 35.28 77.9102 43.98 69.6602 48.27C61.4102 52.56 51.4802 51.525 47.0852 45.75ZM63.0002 87V64.5C62.9995 61.042 64.1935 57.69 66.3803 55.0112C68.567 52.3325 71.6121 50.4915 75.0002 49.8C73.5002 52.515 72.5102 57.075 73.5002 63.3C73.6644 64.7185 74.1162 66.0887 74.828 67.3267C75.5399 68.5647 76.4968 69.6444 77.6402 70.5C79.0841 71.453 80.7703 71.9734 82.5002 72V79.5H78.0002C77.6024 79.5 77.2208 79.658 76.9395 79.9393C76.6582 80.2206 76.5002 80.6021 76.5002 81C76.5002 81.3978 76.6582 81.7793 76.9395 82.0606C77.2208 82.3419 77.6024 82.5 78.0002 82.5H82.5002V87H63.0002Z" fill="white"/>
</g>
<defs>
<clipPath id="clip0_119_36">
<rect width="90" height="90" fill="white"/>
</clipPath>
</defs>
</svg>
