<svg width="147" height="183" viewBox="0 0 147 183" fill="none" xmlns="http://www.w3.org/2000/svg">
<path fill-rule="evenodd" clip-rule="evenodd" d="M146.84 19.2372C146.914 18.7853 146.935 18.3264 146.901 17.8697C146.912 17.5037 146.917 17.1377 146.917 16.7667H146.713C144.283 7.65225 120.265 0.5 91 0.5C61.7302 0.5 37.7165 7.65225 35.2867 16.7667H35.0833C35.0833 17.1377 35.0884 17.5037 35.0986 17.8697C35.0649 18.3281 35.0853 18.7887 35.1596 19.2423C36.7405 44.2421 62.1775 62.5167 91 62.5167C91.3863 62.5167 91.7727 62.5167 92.1641 62.5065C91.6648 62.5662 91.1666 62.6339 90.6696 62.7098C79.2321 64.4585 67.0117 70.6754 54.3644 83.3227L2.04167 135.645C0.0568041 137.63 0.0568039 140.848 2.04167 142.833C4.02653 144.818 7.24464 144.818 9.2295 142.833L61.5523 90.5106C73.0558 79.0121 83.3903 74.1067 92.2048 72.7596C101.014 71.4125 108.883 73.5221 115.619 77.1058C122.4 80.715 127.91 85.7526 131.763 89.9819C133.131 91.4866 134.274 92.8642 135.169 94.013L134.549 94.6382C128.317 91.6391 121.281 91.6391 114.668 93.403C106.042 95.7057 97.588 101.099 90.8983 107.789C84.229 114.453 78.8966 122.846 77.0869 131.508C75.7957 137.709 76.3346 144.063 79.4354 149.752L55.4167 173.77C53.4318 175.755 53.4318 178.973 55.4167 180.958C57.4015 182.943 60.6196 182.943 62.6045 180.958L145.427 98.1361C147.111 96.4514 147.401 93.8231 146.124 91.8119L141.833 94.5417C146.124 91.8119 146.119 91.8068 146.119 91.8068V91.8018L146.103 91.7865L146.073 91.7357L145.971 91.5832C145.43 90.7729 144.869 89.9763 144.289 89.194C142.719 87.093 141.046 85.0708 139.276 83.1347C134.951 78.3868 128.545 72.4698 120.392 68.1338C113.926 64.6923 106.286 62.2167 97.7252 62.1862C123.676 59.6039 145.382 42.2799 146.84 19.2372ZM134.513 18.2917C132.258 17.1069 129.896 16.1384 127.458 15.3992C118.582 12.5729 105.691 10.6667 91 10.6667C76.3092 10.6667 63.4178 12.5729 54.5423 15.3992C52.1044 16.1386 49.742 17.107 47.4867 18.2917C49.1489 19.2067 51.472 20.2081 54.5423 21.1841C63.4178 24.0053 76.3092 25.9167 91 25.9167C105.691 25.9167 118.582 24.0053 127.458 21.1841C129.896 20.4449 132.258 19.4765 134.513 18.2917ZM44.7213 16.3193L44.7823 16.3956C44.7578 16.3739 44.7371 16.3481 44.7213 16.3193ZM133.487 29.8562C123.233 33.6687 108.004 36.0833 91 36.0833C73.9962 36.0833 58.7717 33.6687 48.5135 29.8562C55.0913 42.6561 71.0327 52.35 91 52.35C110.962 52.35 126.909 42.6561 133.487 29.8562ZM87.1773 142.005L126.543 102.644C123.762 102.126 120.656 102.329 117.291 103.224C110.744 104.973 103.795 109.273 98.0913 114.977C92.3674 120.695 88.3313 127.4 87.0401 133.582C86.4199 136.555 86.425 139.377 87.1824 142.005H87.1773Z" fill="white"/>
</svg>
