<svg xmlns="http://www.w3.org/2000/svg" xmlns:xlink="http://www.w3.org/1999/xlink"><defs><clipPath id="clip0_119_45"><path fill="#fff" d="M0 0h90v90H0z"/></clipPath><clipPath id="clip0_119_42"><path fill="#fff" d="M0 0h90v90H0z"/></clipPath><clipPath id="clip0_119_33"><path fill="#fff" d="M0 0h90v90H0z"/></clipPath><clipPath id="clip0_119_36"><path fill="#fff" d="M0 0h90v90H0z"/></clipPath><clipPath id="clip0_119_45"><path fill="#fff" d="M0 0h90v90H0z"/></clipPath><clipPath id="clip0_119_42"><path fill="#fff" d="M0 0h90v90H0z"/></clipPath><clipPath id="clip0_119_33"><path fill="#fff" d="M0 0h90v90H0z"/></clipPath><clipPath id="clip0_119_36"><path fill="#fff" d="M0 0h90v90H0z"/></clipPath></defs><symbol id="arrow-bottom" viewBox="0 0 31 17"><path d="M1 1.4l14.4 14.399 14.399-14.4" stroke="#fff" stroke-width="2" stroke-linecap="round" stroke-linejoin="round"/></symbol><symbol id="arrow-right" viewBox="0 0 17 31"><path d="M1.4 30l14.399-14.4-14.4-14.399" stroke="#fff" stroke-width="2" stroke-linecap="round" stroke-linejoin="round"/></symbol><symbol id="f1" viewBox="0 0 77 42"><path fill-rule="evenodd" clip-rule="evenodd" d="M42.92 11.153a12.697 12.697 0 00-7.38-.465c-2.45.58-4.619 1.874-6.168 3.678-1.55 1.803-2.394 4.017-2.402 6.297-.008 2.28.821 4.499 2.358 6.311 1.537 1.813 3.697 3.117 6.143 3.712a12.7 12.7 0 007.384-.424c2.342-.87 4.3-2.41 5.568-4.384 1.27-1.973 1.779-4.268 1.449-6.529 1.066-.871 1.73-2.07 1.86-3.361.13-1.29-.282-2.578-1.156-3.608-.874-1.03-2.145-1.728-3.562-1.955a6.283 6.283 0 00-4.094.728zm-4.452 16.444c2.033 0 3.983-.727 5.421-2.02 1.438-1.295 2.245-3.05 2.245-4.88H46a6.254 6.254 0 01-2.58-.549 5.647 5.647 0 01-2.033-1.534 4.926 4.926 0 01-1.05-2.191 4.678 4.678 0 01.153-2.383 8.503 8.503 0 00-3.49-.113 8.106 8.106 0 00-3.183 1.288 7.124 7.124 0 00-2.22 2.424 6.347 6.347 0 00-.797 3.059c0 1.83.808 3.584 2.246 4.878s3.388 2.021 5.42 2.021zm9.449-12.074c0 .458-.202.896-.561 1.22a2.03 2.03 0 01-1.356.505 2.03 2.03 0 01-1.355-.505 1.642 1.642 0 01-.561-1.22c0-.457.202-.896.561-1.22A2.03 2.03 0 0146 13.8c.509 0 .996.181 1.356.505.36.323.561.762.561 1.22z" fill="#fff"/><path fill-rule="evenodd" clip-rule="evenodd" d="M2.293 15.289C8.825 8.634 21.239.16 37.993.002l.34-.002h.135C55.46 0 68.048 8.572 74.64 15.289c1.477 1.488 2.293 3.414 2.293 5.409 0 1.995-.816 3.92-2.293 5.409-6.593 6.716-19.18 15.289-36.173 15.289h-.134l-.342-.002c-16.751-.159-29.167-8.633-35.7-15.287C.817 24.618 0 22.693 0 20.697c0-1.994.816-3.92 2.293-5.408zm2.873 2.283c3.601-3.668 9.066-7.87 16.082-10.731-3.814 3.798-5.923 8.737-5.914 13.857 0 5.33 2.238 10.188 5.914 13.857-7.015-2.861-12.48-7.063-16.082-10.732-.858-.858-1.333-1.971-1.333-3.125s.475-2.268 1.333-3.126zM38.387 3.45l-.347.001c-10.451.142-18.873 7.809-18.873 17.247 0 9.438 8.424 17.105 18.873 17.246l.347.002C48.948 37.92 57.5 30.206 57.5 20.698c0-9.51-8.552-17.223-19.113-17.248zm22.947 17.248c0 5.416-2.314 10.349-6.1 14.038 7.234-2.863 12.856-7.166 16.534-10.913.858-.858 1.332-1.971 1.332-3.125s-.474-2.268-1.332-3.126c-3.678-3.746-9.3-8.05-16.533-10.912 3.928 3.819 6.107 8.833 6.099 14.038z" fill="#fff"/></symbol><symbol id="f2" viewBox="0 0 91 90"><path d="M81.87 43.805a31.13 31.13 0 007.951-12.984c.12-.383.224-.782.314-1.18v-.148c.11-.485.11-.99 0-1.475C86.226 11.803 67.445 0 45.5 0 23.555 0 4.774 11.803.82 28.033c-.108.486-.108.99 0 1.475v.148c.09.398.194.797.314 1.165C5.22 44.616 20.139 55.033 38.667 57.128a25.548 25.548 0 00.564 13.334 25.785 25.785 0 007.221 11.275 26.205 26.205 0 0011.95 6.202c4.463.996 9.113.815 13.483-.527a26.146 26.146 0 0011.416-7.116 25.728 25.728 0 006.3-11.803 25.546 25.546 0 00-.503-13.336 25.782 25.782 0 00-7.168-11.308l-.06-.044zm-2.312-1.889a25.627 25.627 0 00-2.73-1.8 36.31 36.31 0 002.417-1.12l1.044-.576a27.024 27.024 0 004.37-2.951 30.311 30.311 0 01-5.101 6.447zm-31.97.87h-2.804a92.85 92.85 0 01-14.202-1.165 18.862 18.862 0 01-4.408-12.105c0-4.42 1.559-8.701 4.408-12.106a92.612 92.612 0 0114.276-1.18h1.358c1.089 0 2.148 0 3.207.073a6.603 6.603 0 00-2.372 4.427 8.909 8.909 0 00-1.491-.148 9.03 9.03 0 00-4.973 1.492 8.874 8.874 0 00-3.297 3.973 8.762 8.762 0 00-.51 5.114 8.823 8.823 0 002.45 4.533 8.982 8.982 0 004.583 2.423 9.043 9.043 0 005.172-.504 8.93 8.93 0 004.017-3.26 8.784 8.784 0 001.508-4.919 8.628 8.628 0 00-.149-1.475 6.698 6.698 0 003.357-1.26 6.591 6.591 0 002.206-2.802 6.513 6.513 0 00.413-3.527 6.549 6.549 0 00-1.5-3.226l1.656.251a18.846 18.846 0 014.217 9.342c.513 3.437.06 6.948-1.308 10.148a26.127 26.127 0 00-15.813 5.902zM5.312 29.509a13.18 13.18 0 013.968-4.426c.276 1.46.415 2.942.418 4.426a23.982 23.982 0 01-.418 4.426 13.434 13.434 0 01-3.894-4.278.456.456 0 01-.074-.148zm6.653-6.197a48.277 48.277 0 0112.65-4.736l1.731-.383a21.758 21.758 0 00-3.178 11.316c0 3.988 1.098 7.9 3.178 11.317l-1.73-.384A48.833 48.833 0 0112.07 35.75a26 26 0 00.611-6.24c0-2.087-.24-4.166-.716-6.198zm41.234 1.771a9.036 9.036 0 00-3.148-3.113 2.712 2.712 0 010-.502 3.659 3.659 0 01.597-2.076 3.72 3.72 0 011.67-1.39 3.767 3.767 0 014.099.785 3.67 3.67 0 011.024 1.906c.142.723.062 1.47-.23 2.147a3.7 3.7 0 01-1.406 1.652 3.76 3.76 0 01-2.1.591 2.808 2.808 0 01-.506 0zm-1.73 4.426a5.869 5.869 0 01-1.749 4.173 6 6 0 01-4.22 1.728c-1.583 0-3.1-.622-4.22-1.729a5.869 5.869 0 01-1.747-4.173c0-1.565.628-3.066 1.748-4.173a6.001 6.001 0 014.219-1.728 6 6 0 014.22 1.728 5.869 5.869 0 011.747 4.173zm13.246-11.316l1.716.383a53.086 53.086 0 0111.308 4.028 26.656 26.656 0 000 13.81 45.76 45.76 0 01-4.73 2.036 26.153 26.153 0 00-6.459-1.475 21.818 21.818 0 001.225-9.61 21.875 21.875 0 00-3.06-9.202v.03zM85.6 29.7a14.986 14.986 0 01-5.192 5.15c-.4-1.753-.6-3.545-.597-5.342a24.162 24.162 0 01.597-5.355 14.83 14.83 0 015.281 5.355l-.09.192zM45.5 2.95c18.797 0 35.057 9.045 40.473 21.955a24.521 24.521 0 00-5.729-4.25h-.15l-.91-.486a54.764 54.764 0 00-12.038-4.308 79.339 79.339 0 00-5.594-1.136 94.362 94.362 0 00-15.231-1.446c-.523-.03-1.045-.03-1.567 0a94.249 94.249 0 00-15.29 1.283 78.11 78.11 0 00-5.61 1.136 52.357 52.357 0 00-13.426 5.076c-.358.206-.687.398-.955.575a22.561 22.561 0 00-4.4 3.467C10.532 11.951 26.747 2.951 45.5 2.951zM6.415 35.41a25.77 25.77 0 002.983 2.183c.343.222.731.443 1.104.664a52.465 52.465 0 0013.322 5.002c1.7.413 3.52.782 5.4 1.092h.194a98.537 98.537 0 0015.112 1.387 25.665 25.665 0 00-4.997 8.513C24.615 52.7 12.128 45.472 6.415 35.41zm57.732 50.164c-12.77 0-23.122-10.24-23.122-22.87 0-12.629 10.353-22.868 23.122-22.868 12.77 0 23.123 10.24 23.123 22.869-.008 12.627-10.356 22.86-23.123 22.869z" fill="#fff"/><path d="M76.395 50.592a1.493 1.493 0 00-1.059-.437 1.506 1.506 0 00-1.06.437L64.148 60.625l-10.13-10.033a1.506 1.506 0 00-2.118 0 1.473 1.473 0 000 2.095l10.144 10.018L51.9 72.723a1.474 1.474 0 00-.441 1.047 1.462 1.462 0 00.44 1.048 1.493 1.493 0 001.06.436 1.507 1.507 0 001.06-.436l10.128-10.033 10.13 10.033a1.493 1.493 0 001.059.436 1.506 1.506 0 001.386-.916 1.46 1.46 0 00-.327-1.615L66.251 62.705l10.144-10.018a1.474 1.474 0 00.442-1.048 1.46 1.46 0 00-.442-1.047z" fill="#fff"/></symbol><symbol id="f3" viewBox="0 0 90 90"><g clip-path="url(#clip0_119_45)" fill="#fff"><path d="M45 88.5c22.05 0 40.95-11.715 45-27.945.015-.185.015-.37 0-.555a3.874 3.874 0 00-.075-.645C87.45 49.32 78.945 40.59 66.975 35.7c.49-.558.942-1.149 1.35-1.77 5.115-7.89.225-14.625-4.095-20.565a44.904 44.904 0 01-4.5-7.02A3 3 0 0057 4.62a3 3 0 00-2.745 1.74 44.683 44.683 0 01-4.5 7.005C46.695 17.61 43.5 22.005 43.5 27c.01 1.535.283 3.058.81 4.5C22.5 31.755 4.02 43.38.075 59.445A3.35 3.35 0 000 60a3.87 3.87 0 000 .645C4.05 76.785 22.95 88.5 45 88.5zm-36.42-33A24.97 24.97 0 019 60a24.78 24.78 0 01-.42 4.5A13.185 13.185 0 014.59 60a13.32 13.32 0 013.99-4.5zM51 60a6 6 0 11-12 0 6 6 0 0112 0zm1.74-4.5a9.135 9.135 0 00-3.165-3.165 2.785 2.785 0 010-.51A3.751 3.751 0 1153.25 55.5c-.17.016-.34.016-.51 0zm-6.24-4.35A8.863 8.863 0 0045 51a9 9 0 109 9 8.864 8.864 0 00-.15-1.5 6.69 6.69 0 004.5-10.995l1.695.27a19.365 19.365 0 010 24.57A93.22 93.22 0 0145 73.5a92.894 92.894 0 01-15.09-1.215 19.32 19.32 0 010-24.57 92.903 92.903 0 0119.05-1.125 6.63 6.63 0 00-2.46 4.56zM85.41 60a14.594 14.594 0 01-5.31 5.46 25.14 25.14 0 010-10.92A14.595 14.595 0 0185.41 60zm-7.995 7.005a54.464 54.464 0 01-13.065 4.5 22.5 22.5 0 000-22.95 54.464 54.464 0 0113.065 4.5 27.27 27.27 0 000 14.01v-.06zM22.5 60a22.5 22.5 0 003.165 11.475A51.51 51.51 0 0111.28 66.3c.478-2.066.72-4.18.72-6.3 0-2.115-.24-4.224-.72-6.285a51.002 51.002 0 0114.385-5.19A22.5 22.5 0 0022.5 60zM45 85.5c-18.135 0-33.945-8.265-40.02-20.175a23.218 23.218 0 003.525 2.715c.136.148.306.262.495.33 8.07 4.965 21.315 8.13 36 8.13 13.83 0 26.355-2.82 34.5-7.275h.15a1.5 1.5 0 00.6-.39 25.408 25.408 0 004.65-3.36C78.735 77.34 63 85.5 45 85.5zm7.215-70.365a46.683 46.683 0 004.77-7.5 48.003 48.003 0 004.785 7.5c4.29 5.895 7.995 10.995 4.005 17.16a10.71 10.71 0 01-9 5.205A10.5 10.5 0 0146.5 27c0-4.005 2.775-7.83 5.715-11.865zM45 34.5h.825a13.5 13.5 0 0010.875 6h.3a12.764 12.764 0 007.5-2.55c9.465 3.57 16.74 9.585 20.43 16.65a25.773 25.773 0 00-4.71-3.42 1.5 1.5 0 00-.585-.375H79.5C71.385 46.32 58.845 43.5 45 43.5c-14.685 0-27.915 3.165-36 8.115-.195.074-.37.192-.51.345a25.317 25.317 0 00-3.39 2.595C11.265 42.66 27 34.5 45 34.5z"/><path d="M57 34.5a1.5 1.5 0 000-3 4.5 4.5 0 01-4.5-4.5 1.5 1.5 0 10-3 0 7.5 7.5 0 007.5 7.5zM83.625 3.705a3 3 0 00-5.25 0 37.29 37.29 0 01-2.34 3.585C74.055 10.08 72 12.96 72 16.32a9 9 0 0018 0c0-3.36-2.04-6.24-4.02-9a34.86 34.86 0 01-2.355-3.615zM81 22.5a6.088 6.088 0 01-6-6.18c0-2.4 1.695-4.77 3.48-7.29A37.98 37.98 0 0081 5.16 40.846 40.846 0 0083.535 9C85.32 11.55 87 13.92 87 16.32a6.09 6.09 0 01-6 6.18z"/></g></symbol><symbol id="f4" viewBox="0 0 90 90"><g clip-path="url(#clip0_119_42)" fill="#fff"><path d="M90 22.5c0-5.835-19.395-9.75-37.5-9.75S15 16.665 15 22.5c0 7.38 6.96 13.71 17.595 17.25H4.5a4.5 4.5 0 00-4.5 4.5v28.5a4.5 4.5 0 004.5 4.5h72a13.498 13.498 0 009.975-4.5.75.75 0 00.15-.165A13.41 13.41 0 0090 63.75c0-11.19-8.67-19.335-23.01-22.5C80.625 38.25 90 31.065 90 22.5zM43.845 74.25c7.83-5.145 21.225-12.795 27.96-12 9.195 1.2 11.445 6.525 12 9a10.5 10.5 0 01-7.305 3H43.845zM87 63.75a10.5 10.5 0 01-1.05 4.5c-1.8-4.08-6-7.95-13.755-9C61.89 58.005 41.7 72 38.52 74.25H4.5a1.5 1.5 0 01-1.5-1.5v-28.5a1.5 1.5 0 011.5-1.5H9v10.5a1.5 1.5 0 003 0v-10.5h6v10.5a1.5 1.5 0 103 0v-10.5h31.5c21 0 34.5 8.25 34.5 21zm-34.5-24c-18.705 0-34.5-7.905-34.5-17.22.495-2.07 14.055-6.78 34.5-6.78s33.96 4.695 34.5 6.765C87 31.86 71.19 39.75 52.5 39.75z"/><path d="M52.5 33.75c-17.4 0-27.615-6.9-28.5-10.77a1.536 1.536 0 00-2.383-.962A1.536 1.536 0 0021 23.625C22.5 29.94 34.86 36.75 52.5 36.75a1.5 1.5 0 100-3z"/></g></symbol><symbol id="f5" viewBox="0 0 90 90"><path d="M80.97 43.805a31.19 31.19 0 007.864-12.984c.118-.383.221-.782.31-1.18v-.148a3.39 3.39 0 000-1.475C85.278 11.803 66.704 0 45 0 23.297 0 4.72 11.803.81 28.033c-.107.486-.107.99 0 1.475v.148c.089.398.192.796.31 1.165 4.043 13.795 18.797 24.212 37.121 26.307A25.82 25.82 0 1081.03 43.849l-.059-.044zm-2.287-1.889a25.337 25.337 0 00-2.7-1.8 35.737 35.737 0 002.39-1.121 27.478 27.478 0 005.297-3.585 30.264 30.264 0 01-4.987 6.506zm-31.618.87h-2.773a92.43 92.43 0 01-14.046-1.165 18.989 18.989 0 010-24.226 92.94 92.94 0 0114.12-1.166h1.342c1.062 0 2.125 0 3.172.074a6.624 6.624 0 00-2.346 4.426 8.718 8.718 0 00-1.475-.147 8.852 8.852 0 108.852 8.852 8.718 8.718 0 00-.147-1.475 6.64 6.64 0 005.99-6.566 6.566 6.566 0 00-1.579-4.249l1.653.251a18.973 18.973 0 012.877 19.49 25.672 25.672 0 00-15.64 5.902zM5.252 29.509a13.132 13.132 0 013.925-4.426c.55 2.925.55 5.927 0 8.852a13.176 13.176 0 01-3.851-4.278.457.457 0 01-.074-.148zm6.58-6.197a47.419 47.419 0 0112.512-4.736l1.711-.383a21.939 21.939 0 000 22.633l-1.711-.384a47.42 47.42 0 01-12.408-4.707c.449-2.044.652-4.134.605-6.226a27.5 27.5 0 00-.708-6.197zm40.78 1.77A8.986 8.986 0 0049.5 21.97a2.747 2.747 0 010-.502 3.688 3.688 0 113.614 3.615 2.729 2.729 0 01-.501 0zm-1.71 4.427a5.902 5.902 0 11-11.805 0 5.902 5.902 0 0111.804 0zm13.101-11.316l1.697.383a52.127 52.127 0 0111.183 4.028 26.94 26.94 0 000 13.81 45 45 0 01-4.677 2.036 25.626 25.626 0 00-6.388-1.475 22.043 22.043 0 00-1.815-18.812v.03zM84.66 29.7a14.932 14.932 0 01-5.135 5.164 24.593 24.593 0 010-10.712 14.622 14.622 0 015.223 5.356l-.088.192zM44.999 2.95c18.59 0 34.643 9.045 40.029 21.925a25.849 25.849 0 00-6.714-4.854 53.779 53.779 0 00-11.906-4.308 90.086 90.086 0 00-20.597-2.434 13.57 13.57 0 00-1.549 0 90.251 90.251 0 00-20.656 2.42 51.537 51.537 0 00-13.19 4.957c-2 1.114-3.828 2.51-5.43 4.146C10.402 11.966 26.44 2.95 45 2.95zM6.345 35.41a26.642 26.642 0 004.072 2.95 51.537 51.537 0 0013.176 5.002 89.813 89.813 0 0020.449 2.376 25.878 25.878 0 00-4.943 8.513C24.344 52.7 11.995 45.472 6.344 35.41zm57.098 50.164c-12.63 0-22.868-10.24-22.868-22.87 0-12.629 10.239-22.868 22.868-22.868 12.63 0 22.87 10.24 22.87 22.869-.01 12.626-10.243 22.86-22.87 22.869z" fill="#fff"/><path d="M76.456 52.038L55.49 71.602l-4.913-6.124a1.476 1.476 0 10-2.301 1.83l5.901 7.377a1.476 1.476 0 001.048.56h.103a1.475 1.475 0 001.003-.398l22.131-20.655a1.475 1.475 0 00-2.006-2.154z" fill="#fff"/></symbol><symbol id="f6" viewBox="0 0 90 90"><g clip-path="url(#clip0_119_33)" fill="#fff"><path d="M0 44.49A2.58 2.58 0 000 45c-.025.214-.025.43 0 .645C4.05 61.785 22.95 73.5 45 73.5s40.95-11.715 45-27.99c.017-.17.017-.34 0-.51 0-.218-.026-.435-.075-.645C85.95 28.215 67.05 16.5 45 16.5c-22.05 0-40.95 11.715-45 27.99zm52.74-3.99a9.135 9.135 0 00-3.165-3.165 2.803 2.803 0 010-.51A3.75 3.75 0 1153.25 40.5c-.17.016-.34.016-.51 0zM51 45a6 6 0 11-12 0 6 6 0 0112 0zm-4.5-8.85A8.862 8.862 0 0045 36a9 9 0 109 9 8.863 8.863 0 00-.15-1.5 6.689 6.689 0 004.5-10.995l1.695.27a19.365 19.365 0 010 24.57A93.22 93.22 0 0145 58.5a92.895 92.895 0 01-15.09-1.215 19.32 19.32 0 010-24.57 92.89 92.89 0 0119.05-1.125 6.63 6.63 0 00-2.46 4.56zm33.6 14.31a25.14 25.14 0 010-10.92A14.595 14.595 0 0185.41 45a14.595 14.595 0 01-5.31 5.46zm-2.685 1.5a54.464 54.464 0 01-13.065 4.5 22.5 22.5 0 000-22.95 54.464 54.464 0 0113.065 4.5 27.272 27.272 0 000 14.01v-.06zM22.5 45a22.5 22.5 0 003.165 11.475 51 51 0 01-14.385-5.19 27.732 27.732 0 000-12.57 51 51 0 0114.385-5.19A22.5 22.5 0 0022.5 45zM8.58 40.5c.277 1.485.417 2.991.42 4.5a24.78 24.78 0 01-.42 4.5A13.32 13.32 0 014.59 45a13.32 13.32 0 013.99-4.5zM45 70.5c-18 0-33.78-8.175-39.915-20.07C12.18 57 27.57 61.5 45 61.5S77.79 57 84.9 50.445C78.735 62.34 63 70.5 45 70.5zm40.02-30.825C78 33 62.52 28.5 45 28.5c-17.52 0-32.805 4.5-39.915 11.07C11.25 27.66 27 19.5 45 19.5s33.93 8.265 40.02 20.175z"/><path d="M88.5 12.75c-7.23 0-7.5-7.395-7.5-8.25a1.5 1.5 0 10-3 0c0 .855-.27 8.25-7.5 8.25a1.5 1.5 0 100 3c7.245 0 7.5 7.41 7.5 8.25a1.5 1.5 0 103 0c0-.855.27-8.25 7.5-8.25a1.5 1.5 0 100-3zm-9 5.25a9.69 9.69 0 00-3.36-3.75 9.69 9.69 0 003.36-3.75 9.69 9.69 0 003.36 3.75A9.69 9.69 0 0079.5 18zm-78 59.25c7.245 0 7.5 7.41 7.5 8.25a1.5 1.5 0 003 0c0-.855.27-8.25 7.5-8.25a1.5 1.5 0 100-3c-7.23 0-7.5-7.395-7.5-8.25a1.5 1.5 0 10-3 0c0 .855-.27 8.25-7.5 8.25a1.5 1.5 0 100 3zm9-5.25a9.69 9.69 0 003.36 3.75 9.69 9.69 0 00-3.36 3.75 9.69 9.69 0 00-3.36-3.75A9.69 9.69 0 0010.5 72zm18 4.5a1.5 1.5 0 10-3 0v3a1.5 1.5 0 103 0v-3zM27 90a1.5 1.5 0 001.5-1.5v-3a1.5 1.5 0 10-3 0v3A1.5 1.5 0 0027 90zm3-6h3a1.5 1.5 0 100-3h-3a1.5 1.5 0 100 3zm-6-3h-3a1.5 1.5 0 100 3h3a1.5 1.5 0 100-3zM63 0a1.5 1.5 0 00-1.5 1.5v3a1.5 1.5 0 103 0v-3A1.5 1.5 0 0063 0zm-1.5 13.5a1.5 1.5 0 103 0v-3a1.5 1.5 0 10-3 0v3zM66 9h3a1.5 1.5 0 000-3h-3a1.5 1.5 0 000 3zm-6-3h-3a1.5 1.5 0 000 3h3a1.5 1.5 0 000-3z"/></g></symbol><symbol id="f7" viewBox="0 0 90 90"><g clip-path="url(#clip0_119_36)" fill="#fff"><path d="M35.865 64.035a48.313 48.313 0 002.205-6.96c.84-3.6 1.293-7.283 1.35-10.98v-1.95a51.72 51.72 0 00-1.35-11.13 49.747 49.747 0 00-1.77-5.79h.09c3.81 0 9.24-1.5 11.505-7.095a1.502 1.502 0 00-2.79-1.11 8.1 8.1 0 01-6.54 4.98 8.07 8.07 0 002.25-4.83c.195-2.7-1.335-4.905-2.685-6.855a19.353 19.353 0 01-1.185-1.815 16.276 16.276 0 01-1.92-6.495 4.5 4.5 0 00-4.5-3.99H9A4.5 4.5 0 004.5 4.5v81A4.5 4.5 0 009 90h21.57a4.5 4.5 0 004.5-3.99 16.126 16.126 0 011.875-6.51c.358-.624.753-1.224 1.185-1.8 1.35-1.95 2.88-4.155 2.685-6.855a8.76 8.76 0 00-4.95-6.81zM16.5 39.54a27.66 27.66 0 011.365 3.135 7.5 7.5 0 010 4.65A25.107 25.107 0 0116.5 50.46l-1.275-1.275a6 6 0 010-8.37L16.5 39.54zm4.2 2.175a30.15 30.15 0 00-1.95-4.35 78.37 78.37 0 014.065-3.525 58 58 0 0110.35-6.525 46.379 46.379 0 011.665 5.055A13.5 13.5 0 0027 45a13.5 13.5 0 007.8 12.63 43.362 43.362 0 01-1.665 5.055A58.155 58.155 0 0122.77 56.16a78.37 78.37 0 01-4.065-3.525 29.9 29.9 0 001.95-4.35c.72-2.13.72-4.44 0-6.57h.045zm15.765 2.475v1.755a50.704 50.704 0 01-.915 8.715A10.71 10.71 0 0130 45a10.725 10.725 0 015.505-9.66 49.5 49.5 0 01.915 8.85h.045zM35.7 76.005c-.45.66-.93 1.35-1.32 2.04a19.156 19.156 0 00-2.295 7.665 1.5 1.5 0 01-1.5 1.29H9a1.5 1.5 0 01-1.5-1.5v-81A1.5 1.5 0 019 3h21.57a1.5 1.5 0 011.5 1.29A19.29 19.29 0 0034.335 12c.39.675.87 1.365 1.32 2.025 1.17 1.68 2.28 3.27 2.16 4.905a5.865 5.865 0 01-3.465 4.5 65.398 65.398 0 00-13.5 8.13 87.4 87.4 0 00-7.86 7.245 9 9 0 000 12.51 87.402 87.402 0 007.89 7.185 64.996 64.996 0 0013.5 8.115 5.894 5.894 0 013.48 4.5c.075 1.62-1.035 3.21-2.205 4.89h.045z"/><path d="M79.5 46.5h-2.43c5.565-5.37 8.235-12.78 6.3-18.975a3.119 3.119 0 00-1.8-1.965 3.268 3.268 0 00-2.775.12l-33 17.175A3.284 3.284 0 0044.1 45.06a3.209 3.209 0 00.57 2.61c3.135 4.035 8.52 6.165 14.37 6.165a25.618 25.618 0 004.74-.45A17.82 17.82 0 0060 64.5V87a3 3 0 003 3h19.5a3 3 0 003-3V52.5a6 6 0 00-6-6zm3 6V69a6.001 6.001 0 01-3.165-.99 7.71 7.71 0 01-2.835-5.25c-1.065-6.405.27-10.71 1.74-12.45a1.935 1.935 0 011.26-.81 3 3 0 013 3zm-35.415-6.75a.374.374 0 01.15-.195l33-17.175a.3.3 0 01.33.09c2.13 6.81-2.655 15.51-10.905 19.8-8.25 4.29-18.18 3.255-22.575-2.52zM63 87V64.5a15 15 0 0112-14.7c-1.5 2.715-2.49 7.275-1.5 13.5a10.501 10.501 0 004.14 7.2A9.076 9.076 0 0082.5 72v7.5H78a1.5 1.5 0 100 3h4.5V87H63z"/></g></symbol><symbol id="finger" viewBox="0 0 147 183"><path fill-rule="evenodd" clip-rule="evenodd" d="M146.84 19.237c.074-.452.095-.91.061-1.367.011-.366.016-.732.016-1.103h-.204C144.283 7.652 120.265.5 91 .5 61.73.5 37.717 7.652 35.287 16.767h-.204c0 .37.005.737.016 1.103a5.84 5.84 0 00.06 1.372c1.581 25 27.019 43.275 55.841 43.275.386 0 .773 0 1.164-.01-.5.06-.997.127-1.494.203-11.438 1.748-23.658 7.965-36.306 20.613L2.042 135.645a5.083 5.083 0 007.188 7.188l52.322-52.322C73.056 79.012 83.39 74.107 92.205 72.76c8.809-1.348 16.678.762 23.414 4.346 6.781 3.609 12.291 8.647 16.144 12.876a70.093 70.093 0 013.406 4.031l-.62.625c-6.232-2.999-13.268-2.999-19.881-1.235-8.626 2.303-17.08 7.696-23.77 14.386-6.669 6.664-12.001 15.057-13.811 23.719-1.291 6.201-.752 12.555 2.348 18.244L55.417 173.77a5.083 5.083 0 007.188 7.188l82.822-82.822a5.088 5.088 0 00.697-6.324l-4.291 2.73c4.291-2.73 4.286-2.735 4.286-2.735v-.005l-.016-.016-.03-.05-.102-.153a59.286 59.286 0 00-1.682-2.389 79.578 79.578 0 00-5.013-6.06c-4.325-4.747-10.731-10.664-18.884-15-6.466-3.442-14.106-5.917-22.667-5.948 25.951-2.582 47.657-19.906 49.115-42.949zm-12.327-.945a40.321 40.321 0 00-7.055-2.893c-8.876-2.826-21.767-4.732-36.458-4.732-14.69 0-27.582 1.906-36.458 4.732a40.37 40.37 0 00-7.055 2.893c1.662.915 3.985 1.916 7.055 2.892C63.418 24.005 76.31 25.917 91 25.917c14.691 0 27.582-1.912 36.458-4.733 2.438-.74 4.8-1.707 7.055-2.892zm-89.792-1.973l.061.077a.285.285 0 01-.06-.077zm88.766 13.537C123.233 33.67 108.004 36.083 91 36.083s-32.228-2.414-42.486-6.227C55.09 42.656 71.032 52.35 91 52.35c19.962 0 35.909-9.694 42.487-22.494zm-46.31 112.149l39.366-39.361c-2.781-.518-5.887-.315-9.252.58-6.547 1.749-13.496 6.049-19.2 11.753-5.724 5.718-9.76 12.423-11.05 18.605-.621 2.973-.616 5.795.141 8.423h-.005z" fill="#fff"/></symbol><symbol id="sprite"><symbol id="arrow-bottom" viewBox="0 0 31 17"><path d="M1 1.4l14.4 14.399 14.399-14.4" stroke="#fff" stroke-width="2" stroke-linecap="round" stroke-linejoin="round"/></symbol><symbol id="arrow-right" viewBox="0 0 17 31"><path d="M1.4 30l14.399-14.4-14.4-14.399" stroke="#fff" stroke-width="2" stroke-linecap="round" stroke-linejoin="round"/></symbol><symbol id="f1" viewBox="0 0 77 42"><path fill-rule="evenodd" clip-rule="evenodd" d="M42.92 11.153a12.697 12.697 0 00-7.38-.465c-2.45.58-4.619 1.874-6.168 3.678-1.55 1.803-2.394 4.017-2.402 6.297-.008 2.28.821 4.499 2.358 6.311 1.537 1.813 3.697 3.117 6.143 3.712a12.7 12.7 0 007.384-.424c2.342-.87 4.3-2.41 5.568-4.384 1.27-1.973 1.779-4.268 1.449-6.529 1.066-.871 1.73-2.07 1.86-3.361.13-1.29-.282-2.578-1.156-3.608-.874-1.03-2.145-1.728-3.562-1.955a6.283 6.283 0 00-4.094.728zm-4.452 16.444c2.033 0 3.983-.727 5.421-2.02 1.438-1.295 2.245-3.05 2.245-4.88H46a6.254 6.254 0 01-2.58-.549 5.647 5.647 0 01-2.033-1.534 4.926 4.926 0 01-1.05-2.191 4.678 4.678 0 01.153-2.383 8.503 8.503 0 00-3.49-.113 8.106 8.106 0 00-3.183 1.288 7.124 7.124 0 00-2.22 2.424 6.347 6.347 0 00-.797 3.059c0 1.83.808 3.584 2.246 4.878s3.388 2.021 5.42 2.021zm9.449-12.074c0 .458-.202.896-.561 1.22a2.03 2.03 0 01-1.356.505 2.03 2.03 0 01-1.355-.505 1.642 1.642 0 01-.561-1.22c0-.457.202-.896.561-1.22A2.03 2.03 0 0146 13.8c.509 0 .996.181 1.356.505.36.323.561.762.561 1.22z" fill="#fff"/><path fill-rule="evenodd" clip-rule="evenodd" d="M2.293 15.289C8.825 8.634 21.239.16 37.993.002l.34-.002h.135C55.46 0 68.048 8.572 74.64 15.289c1.477 1.488 2.293 3.414 2.293 5.409 0 1.995-.816 3.92-2.293 5.409-6.593 6.716-19.18 15.289-36.173 15.289h-.134l-.342-.002c-16.751-.159-29.167-8.633-35.7-15.287C.817 24.618 0 22.693 0 20.697c0-1.994.816-3.92 2.293-5.408zm2.873 2.283c3.601-3.668 9.066-7.87 16.082-10.731-3.814 3.798-5.923 8.737-5.914 13.857 0 5.33 2.238 10.188 5.914 13.857-7.015-2.861-12.48-7.063-16.082-10.732-.858-.858-1.333-1.971-1.333-3.125s.475-2.268 1.333-3.126zM38.387 3.45l-.347.001c-10.451.142-18.873 7.809-18.873 17.247 0 9.438 8.424 17.105 18.873 17.246l.347.002C48.948 37.92 57.5 30.206 57.5 20.698c0-9.51-8.552-17.223-19.113-17.248zm22.947 17.248c0 5.416-2.314 10.349-6.1 14.038 7.234-2.863 12.856-7.166 16.534-10.913.858-.858 1.332-1.971 1.332-3.125s-.474-2.268-1.332-3.126c-3.678-3.746-9.3-8.05-16.533-10.912 3.928 3.819 6.107 8.833 6.099 14.038z" fill="#fff"/></symbol><symbol id="f2" viewBox="0 0 91 90"><path d="M81.87 43.805a31.13 31.13 0 007.951-12.984c.12-.383.224-.782.314-1.18v-.148c.11-.485.11-.99 0-1.475C86.226 11.803 67.445 0 45.5 0 23.555 0 4.774 11.803.82 28.033c-.108.486-.108.99 0 1.475v.148c.09.398.194.797.314 1.165C5.22 44.616 20.139 55.033 38.667 57.128a25.548 25.548 0 00.564 13.334 25.785 25.785 0 007.221 11.275 26.205 26.205 0 0011.95 6.202c4.463.996 9.113.815 13.483-.527a26.146 26.146 0 0011.416-7.116 25.728 25.728 0 006.3-11.803 25.546 25.546 0 00-.503-13.336 25.782 25.782 0 00-7.168-11.308l-.06-.044zm-2.312-1.889a25.627 25.627 0 00-2.73-1.8 36.31 36.31 0 002.417-1.12l1.044-.576a27.024 27.024 0 004.37-2.951 30.311 30.311 0 01-5.101 6.447zm-31.97.87h-2.804a92.85 92.85 0 01-14.202-1.165 18.862 18.862 0 01-4.408-12.105c0-4.42 1.559-8.701 4.408-12.106a92.612 92.612 0 0114.276-1.18h1.358c1.089 0 2.148 0 3.207.073a6.603 6.603 0 00-2.372 4.427 8.909 8.909 0 00-1.491-.148 9.03 9.03 0 00-4.973 1.492 8.874 8.874 0 00-3.297 3.973 8.762 8.762 0 00-.51 5.114 8.823 8.823 0 002.45 4.533 8.982 8.982 0 004.583 2.423 9.043 9.043 0 005.172-.504 8.93 8.93 0 004.017-3.26 8.784 8.784 0 001.508-4.919 8.628 8.628 0 00-.149-1.475 6.698 6.698 0 003.357-1.26 6.591 6.591 0 002.206-2.802 6.513 6.513 0 00.413-3.527 6.549 6.549 0 00-1.5-3.226l1.656.251a18.846 18.846 0 014.217 9.342c.513 3.437.06 6.948-1.308 10.148a26.127 26.127 0 00-15.813 5.902zM5.312 29.509a13.18 13.18 0 013.968-4.426c.276 1.46.415 2.942.418 4.426a23.982 23.982 0 01-.418 4.426 13.434 13.434 0 01-3.894-4.278.456.456 0 01-.074-.148zm6.653-6.197a48.277 48.277 0 0112.65-4.736l1.731-.383a21.758 21.758 0 00-3.178 11.316c0 3.988 1.098 7.9 3.178 11.317l-1.73-.384A48.833 48.833 0 0112.07 35.75a26 26 0 00.611-6.24c0-2.087-.24-4.166-.716-6.198zm41.234 1.771a9.036 9.036 0 00-3.148-3.113 2.712 2.712 0 010-.502 3.659 3.659 0 01.597-2.076 3.72 3.72 0 011.67-1.39 3.767 3.767 0 014.099.785 3.67 3.67 0 011.024 1.906c.142.723.062 1.47-.23 2.147a3.7 3.7 0 01-1.406 1.652 3.76 3.76 0 01-2.1.591 2.808 2.808 0 01-.506 0zm-1.73 4.426a5.869 5.869 0 01-1.749 4.173 6 6 0 01-4.22 1.728c-1.583 0-3.1-.622-4.22-1.729a5.869 5.869 0 01-1.747-4.173c0-1.565.628-3.066 1.748-4.173a6.001 6.001 0 014.219-1.728 6 6 0 014.22 1.728 5.869 5.869 0 011.747 4.173zm13.246-11.316l1.716.383a53.086 53.086 0 0111.308 4.028 26.656 26.656 0 000 13.81 45.76 45.76 0 01-4.73 2.036 26.153 26.153 0 00-6.459-1.475 21.818 21.818 0 001.225-9.61 21.875 21.875 0 00-3.06-9.202v.03zM85.6 29.7a14.986 14.986 0 01-5.192 5.15c-.4-1.753-.6-3.545-.597-5.342a24.162 24.162 0 01.597-5.355 14.83 14.83 0 015.281 5.355l-.09.192zM45.5 2.95c18.797 0 35.057 9.045 40.473 21.955a24.521 24.521 0 00-5.729-4.25h-.15l-.91-.486a54.764 54.764 0 00-12.038-4.308 79.339 79.339 0 00-5.594-1.136 94.362 94.362 0 00-15.231-1.446c-.523-.03-1.045-.03-1.567 0a94.249 94.249 0 00-15.29 1.283 78.11 78.11 0 00-5.61 1.136 52.357 52.357 0 00-13.426 5.076c-.358.206-.687.398-.955.575a22.561 22.561 0 00-4.4 3.467C10.532 11.951 26.747 2.951 45.5 2.951zM6.415 35.41a25.77 25.77 0 002.983 2.183c.343.222.731.443 1.104.664a52.465 52.465 0 0013.322 5.002c1.7.413 3.52.782 5.4 1.092h.194a98.537 98.537 0 0015.112 1.387 25.665 25.665 0 00-4.997 8.513C24.615 52.7 12.128 45.472 6.415 35.41zm57.732 50.164c-12.77 0-23.122-10.24-23.122-22.87 0-12.629 10.353-22.868 23.122-22.868 12.77 0 23.123 10.24 23.123 22.869-.008 12.627-10.356 22.86-23.123 22.869z" fill="#fff"/><path d="M76.395 50.592a1.493 1.493 0 00-1.059-.437 1.506 1.506 0 00-1.06.437L64.148 60.625l-10.13-10.033a1.506 1.506 0 00-2.118 0 1.473 1.473 0 000 2.095l10.144 10.018L51.9 72.723a1.474 1.474 0 00-.441 1.047 1.462 1.462 0 00.44 1.048 1.493 1.493 0 001.06.436 1.507 1.507 0 001.06-.436l10.128-10.033 10.13 10.033a1.493 1.493 0 001.059.436 1.506 1.506 0 001.386-.916 1.46 1.46 0 00-.327-1.615L66.251 62.705l10.144-10.018a1.474 1.474 0 00.442-1.048 1.46 1.46 0 00-.442-1.047z" fill="#fff"/></symbol><symbol id="f3" viewBox="0 0 90 90"><g clip-path="url(#clip0_119_45)" fill="#fff"><path d="M45 88.5c22.05 0 40.95-11.715 45-27.945.015-.185.015-.37 0-.555a3.874 3.874 0 00-.075-.645C87.45 49.32 78.945 40.59 66.975 35.7c.49-.558.942-1.149 1.35-1.77 5.115-7.89.225-14.625-4.095-20.565a44.904 44.904 0 01-4.5-7.02A3 3 0 0057 4.62a3 3 0 00-2.745 1.74 44.683 44.683 0 01-4.5 7.005C46.695 17.61 43.5 22.005 43.5 27c.01 1.535.283 3.058.81 4.5C22.5 31.755 4.02 43.38.075 59.445A3.35 3.35 0 000 60a3.87 3.87 0 000 .645C4.05 76.785 22.95 88.5 45 88.5zm-36.42-33A24.97 24.97 0 019 60a24.78 24.78 0 01-.42 4.5A13.185 13.185 0 014.59 60a13.32 13.32 0 013.99-4.5zM51 60a6 6 0 11-12 0 6 6 0 0112 0zm1.74-4.5a9.135 9.135 0 00-3.165-3.165 2.785 2.785 0 010-.51A3.751 3.751 0 1153.25 55.5c-.17.016-.34.016-.51 0zm-6.24-4.35A8.863 8.863 0 0045 51a9 9 0 109 9 8.864 8.864 0 00-.15-1.5 6.69 6.69 0 004.5-10.995l1.695.27a19.365 19.365 0 010 24.57A93.22 93.22 0 0145 73.5a92.894 92.894 0 01-15.09-1.215 19.32 19.32 0 010-24.57 92.903 92.903 0 0119.05-1.125 6.63 6.63 0 00-2.46 4.56zM85.41 60a14.594 14.594 0 01-5.31 5.46 25.14 25.14 0 010-10.92A14.595 14.595 0 0185.41 60zm-7.995 7.005a54.464 54.464 0 01-13.065 4.5 22.5 22.5 0 000-22.95 54.464 54.464 0 0113.065 4.5 27.27 27.27 0 000 14.01v-.06zM22.5 60a22.5 22.5 0 003.165 11.475A51.51 51.51 0 0111.28 66.3c.478-2.066.72-4.18.72-6.3 0-2.115-.24-4.224-.72-6.285a51.002 51.002 0 0114.385-5.19A22.5 22.5 0 0022.5 60zM45 85.5c-18.135 0-33.945-8.265-40.02-20.175a23.218 23.218 0 003.525 2.715c.136.148.306.262.495.33 8.07 4.965 21.315 8.13 36 8.13 13.83 0 26.355-2.82 34.5-7.275h.15a1.5 1.5 0 00.6-.39 25.408 25.408 0 004.65-3.36C78.735 77.34 63 85.5 45 85.5zm7.215-70.365a46.683 46.683 0 004.77-7.5 48.003 48.003 0 004.785 7.5c4.29 5.895 7.995 10.995 4.005 17.16a10.71 10.71 0 01-9 5.205A10.5 10.5 0 0146.5 27c0-4.005 2.775-7.83 5.715-11.865zM45 34.5h.825a13.5 13.5 0 0010.875 6h.3a12.764 12.764 0 007.5-2.55c9.465 3.57 16.74 9.585 20.43 16.65a25.773 25.773 0 00-4.71-3.42 1.5 1.5 0 00-.585-.375H79.5C71.385 46.32 58.845 43.5 45 43.5c-14.685 0-27.915 3.165-36 8.115-.195.074-.37.192-.51.345a25.317 25.317 0 00-3.39 2.595C11.265 42.66 27 34.5 45 34.5z"/><path d="M57 34.5a1.5 1.5 0 000-3 4.5 4.5 0 01-4.5-4.5 1.5 1.5 0 10-3 0 7.5 7.5 0 007.5 7.5zM83.625 3.705a3 3 0 00-5.25 0 37.29 37.29 0 01-2.34 3.585C74.055 10.08 72 12.96 72 16.32a9 9 0 0018 0c0-3.36-2.04-6.24-4.02-9a34.86 34.86 0 01-2.355-3.615zM81 22.5a6.088 6.088 0 01-6-6.18c0-2.4 1.695-4.77 3.48-7.29A37.98 37.98 0 0081 5.16 40.846 40.846 0 0083.535 9C85.32 11.55 87 13.92 87 16.32a6.09 6.09 0 01-6 6.18z"/></g></symbol><symbol id="f4" viewBox="0 0 90 90"><g clip-path="url(#clip0_119_42)" fill="#fff"><path d="M90 22.5c0-5.835-19.395-9.75-37.5-9.75S15 16.665 15 22.5c0 7.38 6.96 13.71 17.595 17.25H4.5a4.5 4.5 0 00-4.5 4.5v28.5a4.5 4.5 0 004.5 4.5h72a13.498 13.498 0 009.975-4.5.75.75 0 00.15-.165A13.41 13.41 0 0090 63.75c0-11.19-8.67-19.335-23.01-22.5C80.625 38.25 90 31.065 90 22.5zM43.845 74.25c7.83-5.145 21.225-12.795 27.96-12 9.195 1.2 11.445 6.525 12 9a10.5 10.5 0 01-7.305 3H43.845zM87 63.75a10.5 10.5 0 01-1.05 4.5c-1.8-4.08-6-7.95-13.755-9C61.89 58.005 41.7 72 38.52 74.25H4.5a1.5 1.5 0 01-1.5-1.5v-28.5a1.5 1.5 0 011.5-1.5H9v10.5a1.5 1.5 0 003 0v-10.5h6v10.5a1.5 1.5 0 103 0v-10.5h31.5c21 0 34.5 8.25 34.5 21zm-34.5-24c-18.705 0-34.5-7.905-34.5-17.22.495-2.07 14.055-6.78 34.5-6.78s33.96 4.695 34.5 6.765C87 31.86 71.19 39.75 52.5 39.75z"/><path d="M52.5 33.75c-17.4 0-27.615-6.9-28.5-10.77a1.536 1.536 0 00-2.383-.962A1.536 1.536 0 0021 23.625C22.5 29.94 34.86 36.75 52.5 36.75a1.5 1.5 0 100-3z"/></g></symbol><symbol id="f5" viewBox="0 0 90 90"><path d="M80.97 43.805a31.19 31.19 0 007.864-12.984c.118-.383.221-.782.31-1.18v-.148a3.39 3.39 0 000-1.475C85.278 11.803 66.704 0 45 0 23.297 0 4.72 11.803.81 28.033c-.107.486-.107.99 0 1.475v.148c.089.398.192.796.31 1.165 4.043 13.795 18.797 24.212 37.121 26.307A25.82 25.82 0 1081.03 43.849l-.059-.044zm-2.287-1.889a25.337 25.337 0 00-2.7-1.8 35.737 35.737 0 002.39-1.121 27.478 27.478 0 005.297-3.585 30.264 30.264 0 01-4.987 6.506zm-31.618.87h-2.773a92.43 92.43 0 01-14.046-1.165 18.989 18.989 0 010-24.226 92.94 92.94 0 0114.12-1.166h1.342c1.062 0 2.125 0 3.172.074a6.624 6.624 0 00-2.346 4.426 8.718 8.718 0 00-1.475-.147 8.852 8.852 0 108.852 8.852 8.718 8.718 0 00-.147-1.475 6.64 6.64 0 005.99-6.566 6.566 6.566 0 00-1.579-4.249l1.653.251a18.973 18.973 0 012.877 19.49 25.672 25.672 0 00-15.64 5.902zM5.252 29.509a13.132 13.132 0 013.925-4.426c.55 2.925.55 5.927 0 8.852a13.176 13.176 0 01-3.851-4.278.457.457 0 01-.074-.148zm6.58-6.197a47.419 47.419 0 0112.512-4.736l1.711-.383a21.939 21.939 0 000 22.633l-1.711-.384a47.42 47.42 0 01-12.408-4.707c.449-2.044.652-4.134.605-6.226a27.5 27.5 0 00-.708-6.197zm40.78 1.77A8.986 8.986 0 0049.5 21.97a2.747 2.747 0 010-.502 3.688 3.688 0 113.614 3.615 2.729 2.729 0 01-.501 0zm-1.71 4.427a5.902 5.902 0 11-11.805 0 5.902 5.902 0 0111.804 0zm13.101-11.316l1.697.383a52.127 52.127 0 0111.183 4.028 26.94 26.94 0 000 13.81 45 45 0 01-4.677 2.036 25.626 25.626 0 00-6.388-1.475 22.043 22.043 0 00-1.815-18.812v.03zM84.66 29.7a14.932 14.932 0 01-5.135 5.164 24.593 24.593 0 010-10.712 14.622 14.622 0 015.223 5.356l-.088.192zM44.999 2.95c18.59 0 34.643 9.045 40.029 21.925a25.849 25.849 0 00-6.714-4.854 53.779 53.779 0 00-11.906-4.308 90.086 90.086 0 00-20.597-2.434 13.57 13.57 0 00-1.549 0 90.251 90.251 0 00-20.656 2.42 51.537 51.537 0 00-13.19 4.957c-2 1.114-3.828 2.51-5.43 4.146C10.402 11.966 26.44 2.95 45 2.95zM6.345 35.41a26.642 26.642 0 004.072 2.95 51.537 51.537 0 0013.176 5.002 89.813 89.813 0 0020.449 2.376 25.878 25.878 0 00-4.943 8.513C24.344 52.7 11.995 45.472 6.344 35.41zm57.098 50.164c-12.63 0-22.868-10.24-22.868-22.87 0-12.629 10.239-22.868 22.868-22.868 12.63 0 22.87 10.24 22.87 22.869-.01 12.626-10.243 22.86-22.87 22.869z" fill="#fff"/><path d="M76.456 52.038L55.49 71.602l-4.913-6.124a1.476 1.476 0 10-2.301 1.83l5.901 7.377a1.476 1.476 0 001.048.56h.103a1.475 1.475 0 001.003-.398l22.131-20.655a1.475 1.475 0 00-2.006-2.154z" fill="#fff"/></symbol><symbol id="f6" viewBox="0 0 90 90"><g clip-path="url(#clip0_119_33)" fill="#fff"><path d="M0 44.49A2.58 2.58 0 000 45c-.025.214-.025.43 0 .645C4.05 61.785 22.95 73.5 45 73.5s40.95-11.715 45-27.99c.017-.17.017-.34 0-.51 0-.218-.026-.435-.075-.645C85.95 28.215 67.05 16.5 45 16.5c-22.05 0-40.95 11.715-45 27.99zm52.74-3.99a9.135 9.135 0 00-3.165-3.165 2.803 2.803 0 010-.51A3.75 3.75 0 1153.25 40.5c-.17.016-.34.016-.51 0zM51 45a6 6 0 11-12 0 6 6 0 0112 0zm-4.5-8.85A8.862 8.862 0 0045 36a9 9 0 109 9 8.863 8.863 0 00-.15-1.5 6.689 6.689 0 004.5-10.995l1.695.27a19.365 19.365 0 010 24.57A93.22 93.22 0 0145 58.5a92.895 92.895 0 01-15.09-1.215 19.32 19.32 0 010-24.57 92.89 92.89 0 0119.05-1.125 6.63 6.63 0 00-2.46 4.56zm33.6 14.31a25.14 25.14 0 010-10.92A14.595 14.595 0 0185.41 45a14.595 14.595 0 01-5.31 5.46zm-2.685 1.5a54.464 54.464 0 01-13.065 4.5 22.5 22.5 0 000-22.95 54.464 54.464 0 0113.065 4.5 27.272 27.272 0 000 14.01v-.06zM22.5 45a22.5 22.5 0 003.165 11.475 51 51 0 01-14.385-5.19 27.732 27.732 0 000-12.57 51 51 0 0114.385-5.19A22.5 22.5 0 0022.5 45zM8.58 40.5c.277 1.485.417 2.991.42 4.5a24.78 24.78 0 01-.42 4.5A13.32 13.32 0 014.59 45a13.32 13.32 0 013.99-4.5zM45 70.5c-18 0-33.78-8.175-39.915-20.07C12.18 57 27.57 61.5 45 61.5S77.79 57 84.9 50.445C78.735 62.34 63 70.5 45 70.5zm40.02-30.825C78 33 62.52 28.5 45 28.5c-17.52 0-32.805 4.5-39.915 11.07C11.25 27.66 27 19.5 45 19.5s33.93 8.265 40.02 20.175z"/><path d="M88.5 12.75c-7.23 0-7.5-7.395-7.5-8.25a1.5 1.5 0 10-3 0c0 .855-.27 8.25-7.5 8.25a1.5 1.5 0 100 3c7.245 0 7.5 7.41 7.5 8.25a1.5 1.5 0 103 0c0-.855.27-8.25 7.5-8.25a1.5 1.5 0 100-3zm-9 5.25a9.69 9.69 0 00-3.36-3.75 9.69 9.69 0 003.36-3.75 9.69 9.69 0 003.36 3.75A9.69 9.69 0 0079.5 18zm-78 59.25c7.245 0 7.5 7.41 7.5 8.25a1.5 1.5 0 003 0c0-.855.27-8.25 7.5-8.25a1.5 1.5 0 100-3c-7.23 0-7.5-7.395-7.5-8.25a1.5 1.5 0 10-3 0c0 .855-.27 8.25-7.5 8.25a1.5 1.5 0 100 3zm9-5.25a9.69 9.69 0 003.36 3.75 9.69 9.69 0 00-3.36 3.75 9.69 9.69 0 00-3.36-3.75A9.69 9.69 0 0010.5 72zm18 4.5a1.5 1.5 0 10-3 0v3a1.5 1.5 0 103 0v-3zM27 90a1.5 1.5 0 001.5-1.5v-3a1.5 1.5 0 10-3 0v3A1.5 1.5 0 0027 90zm3-6h3a1.5 1.5 0 100-3h-3a1.5 1.5 0 100 3zm-6-3h-3a1.5 1.5 0 100 3h3a1.5 1.5 0 100-3zM63 0a1.5 1.5 0 00-1.5 1.5v3a1.5 1.5 0 103 0v-3A1.5 1.5 0 0063 0zm-1.5 13.5a1.5 1.5 0 103 0v-3a1.5 1.5 0 10-3 0v3zM66 9h3a1.5 1.5 0 000-3h-3a1.5 1.5 0 000 3zm-6-3h-3a1.5 1.5 0 000 3h3a1.5 1.5 0 000-3z"/></g></symbol><symbol id="f7" viewBox="0 0 90 90"><g clip-path="url(#clip0_119_36)" fill="#fff"><path d="M35.865 64.035a48.313 48.313 0 002.205-6.96c.84-3.6 1.293-7.283 1.35-10.98v-1.95a51.72 51.72 0 00-1.35-11.13 49.747 49.747 0 00-1.77-5.79h.09c3.81 0 9.24-1.5 11.505-7.095a1.502 1.502 0 00-2.79-1.11 8.1 8.1 0 01-6.54 4.98 8.07 8.07 0 002.25-4.83c.195-2.7-1.335-4.905-2.685-6.855a19.353 19.353 0 01-1.185-1.815 16.276 16.276 0 01-1.92-6.495 4.5 4.5 0 00-4.5-3.99H9A4.5 4.5 0 004.5 4.5v81A4.5 4.5 0 009 90h21.57a4.5 4.5 0 004.5-3.99 16.126 16.126 0 011.875-6.51c.358-.624.753-1.224 1.185-1.8 1.35-1.95 2.88-4.155 2.685-6.855a8.76 8.76 0 00-4.95-6.81zM16.5 39.54a27.66 27.66 0 011.365 3.135 7.5 7.5 0 010 4.65A25.107 25.107 0 0116.5 50.46l-1.275-1.275a6 6 0 010-8.37L16.5 39.54zm4.2 2.175a30.15 30.15 0 00-1.95-4.35 78.37 78.37 0 014.065-3.525 58 58 0 0110.35-6.525 46.379 46.379 0 011.665 5.055A13.5 13.5 0 0027 45a13.5 13.5 0 007.8 12.63 43.362 43.362 0 01-1.665 5.055A58.155 58.155 0 0122.77 56.16a78.37 78.37 0 01-4.065-3.525 29.9 29.9 0 001.95-4.35c.72-2.13.72-4.44 0-6.57h.045zm15.765 2.475v1.755a50.704 50.704 0 01-.915 8.715A10.71 10.71 0 0130 45a10.725 10.725 0 015.505-9.66 49.5 49.5 0 01.915 8.85h.045zM35.7 76.005c-.45.66-.93 1.35-1.32 2.04a19.156 19.156 0 00-2.295 7.665 1.5 1.5 0 01-1.5 1.29H9a1.5 1.5 0 01-1.5-1.5v-81A1.5 1.5 0 019 3h21.57a1.5 1.5 0 011.5 1.29A19.29 19.29 0 0034.335 12c.39.675.87 1.365 1.32 2.025 1.17 1.68 2.28 3.27 2.16 4.905a5.865 5.865 0 01-3.465 4.5 65.398 65.398 0 00-13.5 8.13 87.4 87.4 0 00-7.86 7.245 9 9 0 000 12.51 87.402 87.402 0 007.89 7.185 64.996 64.996 0 0013.5 8.115 5.894 5.894 0 013.48 4.5c.075 1.62-1.035 3.21-2.205 4.89h.045z"/><path d="M79.5 46.5h-2.43c5.565-5.37 8.235-12.78 6.3-18.975a3.119 3.119 0 00-1.8-1.965 3.268 3.268 0 00-2.775.12l-33 17.175A3.284 3.284 0 0044.1 45.06a3.209 3.209 0 00.57 2.61c3.135 4.035 8.52 6.165 14.37 6.165a25.618 25.618 0 004.74-.45A17.82 17.82 0 0060 64.5V87a3 3 0 003 3h19.5a3 3 0 003-3V52.5a6 6 0 00-6-6zm3 6V69a6.001 6.001 0 01-3.165-.99 7.71 7.71 0 01-2.835-5.25c-1.065-6.405.27-10.71 1.74-12.45a1.935 1.935 0 011.26-.81 3 3 0 013 3zm-35.415-6.75a.374.374 0 01.15-.195l33-17.175a.3.3 0 01.33.09c2.13 6.81-2.655 15.51-10.905 19.8-8.25 4.29-18.18 3.255-22.575-2.52zM63 87V64.5a15 15 0 0112-14.7c-1.5 2.715-2.49 7.275-1.5 13.5a10.501 10.501 0 004.14 7.2A9.076 9.076 0 0082.5 72v7.5H78a1.5 1.5 0 100 3h4.5V87H63z"/></g></symbol><symbol id="finger" viewBox="0 0 147 183"><path fill-rule="evenodd" clip-rule="evenodd" d="M146.84 19.237c.074-.452.095-.91.061-1.367.011-.366.016-.732.016-1.103h-.204C144.283 7.652 120.265.5 91 .5 61.73.5 37.717 7.652 35.287 16.767h-.204c0 .37.005.737.016 1.103a5.84 5.84 0 00.06 1.372c1.581 25 27.019 43.275 55.841 43.275.386 0 .773 0 1.164-.01-.5.06-.997.127-1.494.203-11.438 1.748-23.658 7.965-36.306 20.613L2.042 135.645a5.083 5.083 0 007.188 7.188l52.322-52.322C73.056 79.012 83.39 74.107 92.205 72.76c8.809-1.348 16.678.762 23.414 4.346 6.781 3.609 12.291 8.647 16.144 12.876a70.093 70.093 0 013.406 4.031l-.62.625c-6.232-2.999-13.268-2.999-19.881-1.235-8.626 2.303-17.08 7.696-23.77 14.386-6.669 6.664-12.001 15.057-13.811 23.719-1.291 6.201-.752 12.555 2.348 18.244L55.417 173.77a5.083 5.083 0 007.188 7.188l82.822-82.822a5.088 5.088 0 00.697-6.324l-4.291 2.73c4.291-2.73 4.286-2.735 4.286-2.735v-.005l-.016-.016-.03-.05-.102-.153a59.286 59.286 0 00-1.682-2.389 79.578 79.578 0 00-5.013-6.06c-4.325-4.747-10.731-10.664-18.884-15-6.466-3.442-14.106-5.917-22.667-5.948 25.951-2.582 47.657-19.906 49.115-42.949zm-12.327-.945a40.321 40.321 0 00-7.055-2.893c-8.876-2.826-21.767-4.732-36.458-4.732-14.69 0-27.582 1.906-36.458 4.732a40.37 40.37 0 00-7.055 2.893c1.662.915 3.985 1.916 7.055 2.892C63.418 24.005 76.31 25.917 91 25.917c14.691 0 27.582-1.912 36.458-4.733 2.438-.74 4.8-1.707 7.055-2.892zm-89.792-1.973l.061.077a.285.285 0 01-.06-.077zm88.766 13.537C123.233 33.67 108.004 36.083 91 36.083s-32.228-2.414-42.486-6.227C55.09 42.656 71.032 52.35 91 52.35c19.962 0 35.909-9.694 42.487-22.494zm-46.31 112.149l39.366-39.361c-2.781-.518-5.887-.315-9.252.58-6.547 1.749-13.496 6.049-19.2 11.753-5.724 5.718-9.76 12.423-11.05 18.605-.621 2.973-.616 5.795.141 8.423h-.005z" fill="#fff"/></symbol></symbol></svg>